<?xml version="1.0" encoding="UTF-8" ?>
<!DOCTYPE svg PUBLIC "-//W3C//DTD SVG 1.1//EN" "http://www.w3.org/Graphics/SVG/1.1/DTD/svg11.dtd">
<svg width="1067pt" height="998pt" viewBox="0 0 1067 998" version="1.1" xmlns="http://www.w3.org/2000/svg">
<g id="#e4eaf8ff">
<path fill="#e4eaf8" opacity="1.00" d=" M 520.73 0.00 L 546.11 0.00 C 591.68 1.85 636.94 12.43 678.29 31.77 C 726.34 54.01 768.97 87.66 802.12 128.92 C 824.58 157.15 842.86 188.75 855.49 222.56 C 883.48 296.30 884.94 379.74 859.45 454.38 C 854.76 468.76 848.74 482.68 842.26 496.33 C 839.60 502.08 835.88 507.30 833.84 513.33 C 799.43 527.96 763.15 537.60 726.75 545.77 C 708.45 549.79 689.86 552.82 672.19 559.21 C 658.64 563.95 645.50 569.88 633.19 577.27 C 613.29 572.79 593.65 567.03 574.82 559.14 C 543.79 546.13 514.36 529.07 488.36 507.64 C 458.62 483.32 432.76 454.16 412.62 421.42 C 381.56 371.27 363.66 312.98 361.77 253.99 C 361.67 244.32 361.62 234.64 361.83 224.97 C 364.51 161.02 386.03 98.13 422.61 45.64 C 430.31 34.49 438.76 23.87 447.67 13.68 C 448.65 12.46 449.53 11.16 450.42 9.87 C 473.44 4.17 497.05 1.05 520.73 0.00 Z" />
<path fill="#e4eaf8" opacity="1.00" d=" M 855.12 146.05 C 926.04 175.41 986.47 229.23 1023.75 296.33 C 1049.72 342.52 1064.40 394.85 1067.00 447.74 L 1067.00 480.41 C 1064.90 522.16 1055.45 563.56 1038.65 601.86 C 1009.64 668.54 958.84 725.43 895.92 761.86 C 873.05 775.21 848.59 785.81 823.26 793.51 C 782.50 805.97 739.43 810.41 696.96 807.39 C 698.68 805.93 700.99 805.57 703.06 804.82 C 730.45 795.59 756.75 782.98 780.67 766.73 C 824.01 737.67 858.72 696.68 882.49 650.40 C 909.34 598.28 923.72 540.29 928.23 482.00 C 928.54 478.36 928.83 474.64 927.70 471.11 C 928.03 467.57 928.85 464.11 929.57 460.64 C 937.03 426.02 939.46 390.33 936.84 355.02 C 931.96 286.70 907.84 219.85 867.74 164.30 C 863.78 158.04 858.03 152.95 855.12 146.05 Z" />
</g>
<g id="#d5dcedff">
<path fill="#d5dced" opacity="1.00" d=" M 266.45 126.45 C 313.08 69.14 378.58 27.35 450.42 9.87 C 449.53 11.16 448.65 12.46 447.67 13.68 C 438.76 23.87 430.31 34.49 422.61 45.64 C 386.03 98.13 364.51 161.02 361.83 224.97 C 361.62 234.64 361.67 244.32 361.77 253.99 C 363.66 312.98 381.56 371.27 412.62 421.42 C 432.76 454.16 458.62 483.32 488.36 507.64 C 514.36 529.07 543.79 546.13 574.82 559.14 C 593.65 567.03 613.29 572.79 633.19 577.27 C 595.72 599.30 567.04 634.79 551.04 675.01 C 549.17 680.66 544.66 685.37 538.89 687.03 C 529.98 690.23 519.15 684.87 516.13 675.92 C 502.89 642.54 481.29 612.23 452.72 590.28 C 435.70 577.10 416.43 566.94 396.16 559.77 C 382.12 554.63 367.50 551.39 352.86 548.51 C 312.06 539.92 271.41 529.52 232.88 513.34 C 224.24 497.07 216.07 480.48 209.89 463.09 C 198.44 432.42 191.71 400.03 189.54 367.38 C 188.61 359.95 189.07 352.46 189.01 345.01 C 189.08 336.61 188.55 328.18 189.61 319.82 C 193.70 259.23 214.30 199.81 248.74 149.78 C 253.25 142.78 258.76 136.48 263.17 129.42 C 264.62 128.89 265.50 127.58 266.45 126.45 Z" />
<path fill="#d5dced" opacity="1.00" d=" M 802.12 128.92 C 820.23 133.11 837.99 138.86 855.12 146.05 C 858.03 152.95 863.78 158.04 867.74 164.30 C 907.84 219.85 931.96 286.70 936.84 355.02 C 939.46 390.33 937.03 426.02 929.57 460.64 C 928.85 464.11 928.03 467.57 927.70 471.11 C 926.97 469.96 926.21 468.85 925.42 467.76 C 922.71 465.01 918.81 463.52 914.95 464.03 C 910.85 464.23 907.91 467.42 904.99 469.91 C 884.08 488.47 859.54 502.55 833.84 513.33 C 835.88 507.30 839.60 502.08 842.26 496.33 C 848.74 482.68 854.76 468.76 859.45 454.38 C 884.94 379.74 883.48 296.30 855.49 222.56 C 842.86 188.75 824.58 157.15 802.12 128.92 Z" />
<path fill="#d5dced" opacity="1.00" d=" M 48.84 286.95 C 86.37 224.26 144.37 174.09 211.88 146.13 C 210.46 149.69 208.05 152.69 205.62 155.60 C 158.41 217.04 131.19 293.55 128.99 371.00 C 129.12 381.34 128.73 391.70 129.23 402.03 C 130.69 425.00 133.43 448.01 139.30 470.29 C 138.16 472.70 137.85 475.37 138.04 478.01 C 141.02 520.66 149.28 563.05 163.68 603.35 C 175.71 636.88 192.12 669.00 213.53 697.54 C 234.90 726.23 261.37 751.14 291.46 770.51 C 316.08 786.45 343.03 798.66 371.01 807.39 C 328.39 810.36 285.15 806.12 244.25 793.60 C 171.78 771.92 107.22 725.26 63.49 663.58 C 40.12 630.77 22.55 593.83 11.98 554.96 C 4.93 529.41 1.13 503.01 0.00 476.54 L 0.00 451.59 C 2.16 393.77 18.87 336.49 48.84 286.95 Z" />
</g>
<g id="#c7cfe2ff">
<path fill="#c7cfe2" opacity="1.00" d=" M 211.88 146.13 C 228.49 139.19 245.65 133.54 263.17 129.42 C 258.76 136.48 253.25 142.78 248.74 149.78 C 214.30 199.81 193.70 259.23 189.61 319.82 C 188.55 328.18 189.08 336.61 189.01 345.01 C 189.07 352.46 188.61 359.95 189.54 367.38 C 191.71 400.03 198.44 432.42 209.89 463.09 C 216.07 480.48 224.24 497.07 232.88 513.34 C 206.18 502.09 180.78 487.27 159.30 467.70 C 155.92 464.19 150.73 463.15 146.13 464.54 C 143.29 465.67 140.98 467.76 139.30 470.29 C 133.43 448.01 130.69 425.00 129.23 402.03 C 128.73 391.70 129.12 381.34 128.99 371.00 C 131.19 293.55 158.41 217.04 205.62 155.60 C 208.05 152.69 210.46 149.69 211.88 146.13 Z" />
</g>
<g id="#a0d755ff">
<path fill="#a0d755" opacity="1.00" d=" M 146.13 464.54 C 150.73 463.15 155.92 464.19 159.30 467.70 C 180.78 487.27 206.18 502.09 232.88 513.34 C 271.41 529.52 312.06 539.92 352.86 548.51 C 367.50 551.39 382.12 554.63 396.16 559.77 C 416.43 566.94 435.70 577.10 452.72 590.28 C 481.29 612.23 502.89 642.54 516.13 675.92 C 519.15 684.87 529.98 690.23 538.89 687.03 C 544.66 685.37 549.17 680.66 551.04 675.01 C 567.04 634.79 595.72 599.30 633.19 577.27 C 645.50 569.88 658.64 563.95 672.19 559.21 C 689.86 552.82 708.45 549.79 726.75 545.77 C 763.15 537.60 799.43 527.96 833.84 513.33 C 859.54 502.55 884.08 488.47 904.99 469.91 C 907.91 467.42 910.85 464.23 914.95 464.03 C 918.81 463.52 922.71 465.01 925.42 467.76 C 916.25 492.51 899.12 513.19 881.22 532.15 C 859.32 554.54 834.90 574.34 809.34 592.37 C 780.97 612.38 751.09 630.19 720.36 646.29 C 688.83 662.33 657.02 678.05 627.40 697.48 C 600.95 714.92 575.65 735.51 558.55 762.57 C 539.61 791.91 532.89 827.53 533.57 862.03 C 533.56 907.35 533.61 952.68 533.54 998.00 L 513.43 998.00 C 505.22 996.83 498.69 989.27 498.71 980.99 C 498.33 966.01 498.66 951.01 498.55 936.03 C 498.40 928.78 499.10 921.44 497.49 914.31 C 498.88 904.58 497.74 894.75 498.41 884.99 C 499.67 871.01 498.64 856.97 497.63 843.01 C 495.97 822.86 492.97 802.50 485.22 783.69 C 479.60 770.21 469.74 757.78 455.97 752.07 C 439.33 744.93 421.61 740.82 404.32 735.59 C 368.46 725.50 333.07 712.42 301.31 692.70 C 285.88 683.21 271.27 672.35 257.79 660.26 C 252.85 655.16 247.15 650.84 242.56 645.40 C 222.35 624.70 205.33 600.96 191.23 575.73 C 176.24 548.91 164.01 520.58 154.60 491.33 C 151.48 482.49 149.29 473.36 146.13 464.54 Z" />
<path fill="#a0d755" opacity="1.00" d=" M 696.96 807.39 C 739.43 810.41 782.50 805.97 823.26 793.51 C 852.04 807.99 883.15 817.74 915.03 822.38 C 921.48 822.71 925.66 830.24 923.05 836.01 C 921.69 839.89 917.57 841.35 914.17 842.95 C 873.81 861.97 830.16 873.60 785.91 878.87 C 734.45 884.97 682.20 882.90 631.12 874.48 C 615.55 872.02 599.08 876.91 587.25 887.29 C 577.11 895.96 570.58 908.45 568.70 921.61 C 567.31 911.79 568.30 901.86 567.98 891.99 C 567.45 873.27 574.87 854.42 588.18 841.22 C 598.33 831.03 611.83 824.20 626.11 822.28 C 637.87 820.70 649.58 818.77 661.19 816.26 C 673.27 813.95 684.96 810.04 696.96 807.39 Z" />
</g>
<g id="#91c84bff">
<path fill="#91c84b" opacity="1.00" d=" M 139.30 470.29 C 140.98 467.76 143.29 465.67 146.13 464.54 C 149.29 473.36 151.48 482.49 154.60 491.33 C 164.01 520.58 176.24 548.91 191.23 575.73 C 205.33 600.96 222.35 624.70 242.56 645.40 C 247.15 650.84 252.85 655.16 257.79 660.26 C 271.27 672.35 285.88 683.21 301.31 692.70 C 333.07 712.42 368.46 725.50 404.32 735.59 C 421.61 740.82 439.33 744.93 455.97 752.07 C 469.74 757.78 479.60 770.21 485.22 783.69 C 492.97 802.50 495.97 822.86 497.63 843.01 C 498.64 856.97 499.67 871.01 498.41 884.99 C 497.74 894.75 498.88 904.58 497.49 914.31 C 493.39 899.74 483.28 886.94 469.76 880.05 C 459.47 874.64 447.42 872.67 435.94 874.56 C 366.82 885.88 295.23 885.72 226.99 868.93 C 199.94 862.15 173.44 852.87 148.46 840.45 C 141.14 836.58 143.11 823.94 151.36 822.63 C 173.40 819.30 195.19 813.95 216.04 805.99 C 225.71 802.49 234.91 797.88 244.25 793.60 C 285.15 806.12 328.39 810.36 371.01 807.39 C 343.03 798.66 316.08 786.45 291.46 770.51 C 261.37 751.14 234.90 726.23 213.53 697.54 C 192.12 669.00 175.71 636.88 163.68 603.35 C 149.28 563.05 141.02 520.66 138.04 478.01 C 137.85 475.37 138.16 472.70 139.30 470.29 Z" />
</g>
<g id="#b4e66eff">
<path fill="#b4e66e" opacity="1.00" d=" M 925.42 467.76 C 926.21 468.85 926.97 469.96 927.70 471.11 C 928.83 474.64 928.54 478.36 928.23 482.00 C 923.72 540.29 909.34 598.28 882.49 650.40 C 858.72 696.68 824.01 737.67 780.67 766.73 C 756.75 782.98 730.45 795.59 703.06 804.82 C 700.99 805.57 698.68 805.93 696.96 807.39 C 684.96 810.04 673.27 813.95 661.19 816.26 C 649.58 818.77 637.87 820.70 626.11 822.28 C 611.83 824.20 598.33 831.03 588.18 841.22 C 574.87 854.42 567.45 873.27 567.98 891.99 C 568.30 901.86 567.31 911.79 568.70 921.61 C 567.09 942.08 568.64 962.66 567.77 983.16 C 566.83 991.13 559.66 997.61 551.68 998.00 L 533.54 998.00 C 533.61 952.68 533.56 907.35 533.57 862.03 C 532.89 827.53 539.61 791.91 558.55 762.57 C 575.65 735.51 600.95 714.92 627.40 697.48 C 657.02 678.05 688.83 662.33 720.36 646.29 C 751.09 630.19 780.97 612.38 809.34 592.37 C 834.90 574.34 859.32 554.54 881.22 532.15 C 899.12 513.19 916.25 492.51 925.42 467.76 Z" />
</g>
</svg>
