<?xml version="1.0" encoding="UTF-8" ?>
<!DOCTYPE svg PUBLIC "-//W3C//DTD SVG 1.1//EN" "http://www.w3.org/Graphics/SVG/1.1/DTD/svg11.dtd">
<svg width="1018pt" height="1067pt" viewBox="0 0 1018 1067" version="1.1" xmlns="http://www.w3.org/2000/svg">
<g id="#ff507dff">
<path fill="#ff507d" opacity="1.00" d=" M 288.36 0.00 L 299.50 0.00 C 306.75 1.34 313.11 5.17 318.77 9.74 C 322.59 14.47 325.82 19.77 327.40 25.69 C 336.92 58.91 355.97 89.28 381.48 112.57 C 405.25 134.31 434.61 149.86 466.01 157.08 C 504.47 166.17 545.73 162.61 582.11 147.19 C 633.25 125.87 673.92 80.87 689.61 27.69 C 691.33 21.06 694.49 14.85 699.03 9.70 C 704.59 4.97 711.07 1.18 718.37 0.00 L 729.51 0.00 C 732.78 0.80 736.00 1.79 739.20 2.87 C 734.07 43.98 717.83 83.65 692.44 116.40 C 670.46 144.72 641.99 168.05 609.66 183.61 C 574.79 200.44 535.63 208.39 496.96 206.29 C 442.44 203.80 389.02 181.19 349.57 143.42 C 346.12 140.56 342.93 137.39 340.06 133.95 C 308.94 101.36 287.88 59.38 280.01 15.04 C 279.40 11.06 279.02 6.99 277.42 3.25 C 281.01 1.97 284.63 0.77 288.36 0.00 Z" />
<path fill="#ff507d" opacity="1.00" d=" M 78.47 113.44 C 82.76 98.80 90.11 84.96 100.37 73.63 C 125.37 121.02 150.20 168.50 175.05 215.97 C 187.92 239.76 195.74 266.17 198.37 293.07 C 198.95 297.47 199.03 301.91 198.75 306.34 C 196.94 300.47 193.07 294.85 186.92 293.04 C 176.89 289.35 164.72 297.17 164.30 307.93 C 164.10 325.61 164.38 343.30 164.19 360.98 C 164.38 366.29 160.24 371.23 155.05 372.16 C 152.10 372.77 149.18 371.68 146.57 370.41 C 110.41 352.23 74.17 334.21 37.98 316.07 C 31.20 312.59 24.23 309.46 17.63 305.64 C 20.32 298.17 22.45 290.52 24.93 282.98 C 42.77 226.46 60.62 169.95 78.47 113.44 Z" />
<path fill="#ff507d" opacity="1.00" d=" M 886.44 131.37 C 896.88 112.15 906.47 92.49 917.16 73.41 C 926.38 83.72 933.38 96.00 937.78 109.11 C 958.47 174.52 979.07 239.96 999.79 305.36 C 986.40 312.65 972.53 319.03 958.99 326.02 C 929.42 340.77 899.87 355.56 870.32 370.35 C 867.48 371.73 864.22 373.02 861.05 372.00 C 856.10 370.81 852.42 366.06 852.62 360.95 C 852.45 343.30 852.68 325.65 852.54 308.01 C 852.11 297.65 840.83 289.76 830.93 292.78 C 824.40 294.28 819.96 299.97 818.18 306.16 C 818.77 279.31 825.21 252.64 836.15 228.13 C 841.31 216.57 847.81 205.69 853.40 194.34 C 864.51 173.40 875.48 152.39 886.44 131.37 Z" />
<path fill="#ff507d" opacity="1.00" d=" M 6.87 339.74 C 19.56 345.16 31.63 351.96 44.06 357.95 C 77.85 374.80 111.61 391.72 145.38 408.60 C 156.71 414.18 164.11 426.43 164.20 439.00 C 164.29 450.02 164.24 461.04 164.18 472.06 C 115.52 447.54 66.72 423.30 18.01 398.89 C 8.44 393.96 1.80 384.25 0.00 373.71 L 0.00 362.49 C 1.98 354.82 4.83 347.40 6.87 339.74 Z" />
<path fill="#ff507d" opacity="1.00" d=" M 870.99 408.91 C 917.51 385.73 963.92 362.33 1010.49 339.25 C 1012.99 348.60 1017.31 357.58 1018.00 367.33 L 1018.00 369.63 C 1017.50 382.15 1009.91 394.09 998.56 399.51 C 949.98 423.88 901.32 448.08 852.76 472.47 C 852.34 464.64 852.67 456.81 852.59 448.97 C 852.62 443.41 852.26 437.78 853.35 432.29 C 855.51 422.47 861.83 413.36 870.99 408.91 Z" />
<path fill="#ff507d" opacity="1.00" d=" M 198.82 360.91 C 208.00 361.36 217.13 364.65 223.62 371.34 C 229.75 377.98 233.69 386.85 233.66 395.96 C 233.65 459.96 233.63 523.96 233.65 587.96 C 233.85 611.67 232.90 635.45 235.42 659.08 C 239.64 703.67 251.40 747.51 269.64 788.40 C 309.33 877.21 381.60 950.95 469.57 992.45 C 514.52 1013.82 563.39 1026.85 612.99 1030.82 C 635.28 1032.70 657.67 1032.02 680.02 1032.19 C 709.02 1032.13 738.02 1032.21 767.02 1032.17 C 772.71 1031.93 777.97 1035.30 781.19 1039.83 C 784.87 1045.08 784.90 1052.40 781.95 1057.99 C 780.04 1061.56 776.49 1063.71 773.16 1065.76 C 779.09 1065.89 785.02 1065.87 790.96 1065.86 C 794.99 1065.88 799.11 1065.44 803.04 1066.61 L 804.30 1067.00 L 214.40 1067.00 C 206.47 1066.03 199.14 1059.25 199.00 1051.03 C 198.96 863.82 199.08 676.60 198.94 489.39 C 198.61 482.25 198.77 475.09 198.75 467.95 C 198.80 432.27 198.69 396.59 198.82 360.91 Z" />
</g>
<g id="#ff6991ff">
<path fill="#ff6991" opacity="1.00" d=" M 739.20 2.87 C 783.23 16.57 827.37 29.92 871.43 43.51 C 888.99 49.14 904.95 59.59 917.16 73.41 C 906.47 92.49 896.88 112.15 886.44 131.37 C 875.48 152.39 864.51 173.40 853.40 194.34 C 847.81 205.69 841.31 216.57 836.15 228.13 C 825.21 252.64 818.77 279.31 818.18 306.16 C 817.77 360.79 818.12 415.42 818.00 470.05 C 818.17 476.56 817.49 483.11 818.55 489.58 C 819.02 527.70 818.62 565.84 818.75 603.97 C 818.75 752.32 818.76 900.67 818.75 1049.02 C 819.08 1057.79 811.97 1066.25 803.04 1066.61 C 799.11 1065.44 794.99 1065.88 790.96 1065.86 C 785.02 1065.87 779.09 1065.89 773.16 1065.76 C 776.49 1063.71 780.04 1061.56 781.95 1057.99 C 784.90 1052.40 784.87 1045.08 781.19 1039.83 C 777.97 1035.30 772.71 1031.93 767.02 1032.17 C 738.02 1032.21 709.02 1032.13 680.02 1032.19 C 657.67 1032.02 635.28 1032.70 612.99 1030.82 C 563.39 1026.85 514.52 1013.82 469.57 992.45 C 381.60 950.95 309.33 877.21 269.64 788.40 C 251.40 747.51 239.64 703.67 235.42 659.08 C 232.90 635.45 233.85 611.67 233.65 587.96 C 233.63 523.96 233.65 459.96 233.66 395.96 C 233.69 386.85 229.75 377.98 223.62 371.34 C 217.13 364.65 208.00 361.36 198.82 360.91 C 198.84 342.72 198.93 324.53 198.75 306.34 C 199.03 301.91 198.95 297.47 198.37 293.07 C 195.74 266.17 187.92 239.76 175.05 215.97 C 150.20 168.50 125.37 121.02 100.37 73.63 C 109.37 63.64 120.09 55.15 132.21 49.25 C 141.55 44.47 151.79 41.91 161.75 38.79 C 200.30 26.91 238.90 15.21 277.42 3.25 C 279.02 6.99 279.40 11.06 280.01 15.04 C 287.88 59.38 308.94 101.36 340.06 133.95 C 342.93 137.39 346.12 140.56 349.57 143.42 C 389.02 181.19 442.44 203.80 496.96 206.29 C 535.63 208.39 574.79 200.44 609.66 183.61 C 641.99 168.05 670.46 144.72 692.44 116.40 C 717.83 83.65 734.07 43.98 739.20 2.87 Z" />
</g>
<g id="#d23c69ff">
<path fill="#d23c69" opacity="1.00" d=" M 318.77 9.74 C 337.46 15.26 356.42 19.81 375.61 23.19 C 436.76 33.93 499.20 36.33 561.11 32.68 C 607.68 29.70 654.27 23.19 699.03 9.70 C 694.49 14.85 691.33 21.06 689.61 27.69 C 673.92 80.87 633.25 125.87 582.11 147.19 C 545.73 162.61 504.47 166.17 466.01 157.08 C 434.61 149.86 405.25 134.31 381.48 112.57 C 355.97 89.28 336.92 58.91 327.40 25.69 C 325.82 19.77 322.59 14.47 318.77 9.74 Z" />
<path fill="#d23c69" opacity="1.00" d=" M 164.30 307.93 C 164.72 297.17 176.89 289.35 186.92 293.04 C 193.07 294.85 196.94 300.47 198.75 306.34 C 198.93 324.53 198.84 342.72 198.82 360.91 C 198.69 396.59 198.80 432.27 198.75 467.95 C 198.77 475.09 198.61 482.25 198.94 489.39 C 187.27 483.79 175.72 477.93 164.18 472.06 C 164.24 461.04 164.29 450.02 164.20 439.00 C 164.11 426.43 156.71 414.18 145.38 408.60 C 111.61 391.72 77.85 374.80 44.06 357.95 C 31.63 351.96 19.56 345.16 6.87 339.74 C 10.09 328.27 13.70 316.89 17.63 305.64 C 24.23 309.46 31.20 312.59 37.98 316.07 C 74.17 334.21 110.41 352.23 146.57 370.41 C 149.18 371.68 152.10 372.77 155.05 372.16 C 160.24 371.23 164.38 366.29 164.19 360.98 C 164.38 343.30 164.10 325.61 164.30 307.93 Z" />
<path fill="#d23c69" opacity="1.00" d=" M 830.93 292.78 C 840.83 289.76 852.11 297.65 852.54 308.01 C 852.68 325.65 852.45 343.30 852.62 360.95 C 852.42 366.06 856.10 370.81 861.05 372.00 C 864.22 373.02 867.48 371.73 870.32 370.35 C 899.87 355.56 929.42 340.77 958.99 326.02 C 972.53 319.03 986.40 312.65 999.79 305.36 C 1003.40 316.64 1006.96 327.94 1010.49 339.25 C 963.92 362.33 917.51 385.73 870.99 408.91 C 861.83 413.36 855.51 422.47 853.35 432.29 C 852.26 437.78 852.62 443.41 852.59 448.97 C 852.67 456.81 852.34 464.64 852.76 472.47 C 841.38 478.22 829.97 483.91 818.55 489.58 C 817.49 483.11 818.17 476.56 818.00 470.05 C 818.12 415.42 817.77 360.79 818.18 306.16 C 819.96 299.97 824.40 294.28 830.93 292.78 Z" />
</g>
</svg>
