<?xml version="1.0" encoding="UTF-8" ?>
<!DOCTYPE svg PUBLIC "-//W3C//DTD SVG 1.1//EN" "http://www.w3.org/Graphics/SVG/1.1/DTD/svg11.dtd">
<svg width="943pt" height="819pt" viewBox="0 0 943 819" version="1.1" xmlns="http://www.w3.org/2000/svg">
<g id="#70965fff">
<path fill="#70965f" opacity="1.00" d=" M 306.26 0.00 L 315.77 0.00 C 323.52 0.11 330.65 5.68 332.75 13.11 C 336.11 24.27 340.83 34.96 346.25 45.27 C 358.99 68.85 377.74 90.16 402.40 101.56 C 404.04 102.27 405.74 102.84 407.44 103.39 L 406.86 102.18 C 408.97 104.79 412.39 105.37 415.40 106.35 C 437.72 112.87 462.32 111.85 483.85 102.94 C 500.31 96.06 514.63 84.62 525.98 70.94 C 538.57 55.81 548.09 38.23 554.70 19.72 C 556.37 15.22 557.12 10.17 560.38 6.44 C 563.16 2.98 567.35 1.09 571.56 0.00 L 594.14 0.00 C 596.09 0.54 598.07 0.91 600.09 1.12 C 638.84 4.50 676.65 16.52 710.74 35.13 C 738.09 50.00 763.14 68.90 785.72 90.28 C 789.15 93.64 792.61 96.99 796.47 99.88 C 797.37 101.17 798.23 102.50 799.25 103.71 C 831.95 137.77 859.69 176.57 881.69 218.33 C 884.78 225.30 890.08 231.91 889.49 239.93 C 889.34 245.24 886.29 249.95 882.32 253.28 C 839.51 290.14 796.72 327.02 753.89 363.87 C 748.06 369.24 738.73 370.07 731.93 366.11 C 727.47 363.58 724.87 359.00 721.81 355.09 C 715.93 347.42 710.29 339.57 704.32 331.99 C 704.33 470.32 704.30 608.66 704.32 747.00 C 704.22 753.20 705.11 760.00 701.63 765.52 C 698.37 770.88 692.35 774.53 686.00 774.40 C 536.88 774.49 387.76 774.28 238.64 774.51 C 228.41 774.66 218.17 774.50 207.94 774.60 C 203.20 774.72 198.15 774.47 194.06 771.77 C 188.70 768.49 185.22 762.37 185.27 756.07 C 185.21 639.05 185.33 522.03 185.20 405.01 C 185.54 384.35 185.24 363.69 185.37 343.02 C 185.41 339.59 185.31 336.16 185.09 332.74 C 176.88 342.44 169.88 353.10 161.84 362.94 C 156.97 368.55 148.92 369.75 141.99 368.05 C 139.70 366.74 137.41 365.40 135.39 363.70 C 92.43 326.67 49.44 289.68 6.47 252.66 C 2.91 249.67 0.71 245.32 0.00 240.76 L 0.00 236.27 C 0.55 233.63 1.47 231.09 2.64 228.68 C 11.92 209.54 22.74 191.17 34.49 173.45 C 67.37 124.20 108.39 79.55 158.37 47.29 C 186.51 29.15 217.54 15.34 250.13 7.55 C 268.53 3.15 287.36 0.72 306.26 0.00 M 231.22 52.29 C 193.89 66.29 160.37 89.13 131.37 116.28 C 95.24 150.28 65.33 190.63 41.59 234.11 C 49.59 240.99 57.58 247.89 65.61 254.74 C 90.63 276.63 116.09 298.02 141.14 319.88 C 142.50 321.12 144.03 322.14 145.59 323.11 C 159.89 303.96 174.31 284.89 188.78 265.87 C 193.58 259.12 203.10 256.14 210.79 259.39 C 217.91 262.00 222.50 269.58 222.37 277.05 C 222.41 312.37 222.35 347.68 222.38 383.00 C 222.41 388.07 222.17 393.16 222.60 398.23 C 222.40 511.27 222.57 624.32 222.51 737.37 C 227.89 737.36 233.27 737.34 238.65 737.38 C 281.44 737.46 324.24 737.38 367.04 737.42 C 467.06 737.30 567.09 737.61 667.10 737.27 C 667.44 697.49 667.16 657.70 667.25 617.92 C 667.23 504.26 667.27 390.61 667.23 276.95 C 667.20 273.47 668.05 269.96 669.86 266.96 C 674.51 259.18 685.11 255.93 693.34 259.72 C 699.21 262.22 702.36 268.04 706.12 272.83 C 718.82 289.60 731.51 306.37 744.17 323.17 C 747.67 320.73 750.75 317.79 753.99 315.03 C 784.88 288.56 815.67 261.98 846.55 235.51 C 847.51 234.88 848.04 233.73 847.30 232.71 C 843.79 226.00 839.87 219.50 835.95 213.01 C 808.76 168.75 775.21 127.90 734.28 95.64 C 705.71 73.27 673.30 55.34 638.21 45.60 C 633.46 44.68 628.59 44.82 623.78 44.81 C 625.85 43.81 628.19 44.51 630.40 44.31 C 628.96 42.94 626.87 42.88 625.07 42.39 C 612.85 39.76 600.44 38.00 587.95 37.35 C 576.70 66.31 559.07 93.08 535.51 113.49 C 517.49 129.12 495.54 140.37 472.07 144.91 C 467.63 145.85 463.10 146.22 458.67 147.13 L 459.75 147.67 C 456.91 146.85 453.92 147.21 451.02 147.29 C 436.19 147.98 421.24 146.33 406.95 142.28 C 382.98 135.56 361.29 121.76 344.07 103.89 C 328.84 88.66 317.09 70.33 307.45 51.17 C 305.60 46.56 303.39 42.10 301.78 37.39 C 277.66 38.55 253.81 43.84 231.22 52.29 Z" />
</g>
<g id="#99cb83ff">
<path fill="#99cb83" opacity="1.00" d=" M 346.25 45.27 C 354.14 44.96 362.05 44.17 369.96 44.55 C 377.45 44.99 384.13 50.59 386.16 57.77 C 390.85 73.50 398.29 88.24 406.86 102.18 L 407.44 103.39 C 405.74 102.84 404.04 102.27 402.40 101.56 C 377.74 90.16 358.99 68.85 346.25 45.27 Z" />
<path fill="#99cb83" opacity="1.00" d=" M 612.58 52.56 C 615.13 48.62 619.34 46.09 623.78 44.81 C 628.59 44.82 633.46 44.68 638.21 45.60 C 673.30 55.34 705.71 73.27 734.28 95.64 C 775.21 127.90 808.76 168.75 835.95 213.01 C 839.87 219.50 843.79 226.00 847.30 232.71 C 848.04 233.73 847.51 234.88 846.55 235.51 C 815.67 261.98 784.88 288.56 753.99 315.03 C 750.75 317.79 747.67 320.73 744.17 323.17 C 731.51 306.37 718.82 289.60 706.12 272.83 C 702.36 268.04 699.21 262.22 693.34 259.72 C 685.11 255.93 674.51 259.18 669.86 266.96 C 668.05 269.96 667.20 273.47 667.23 276.95 C 667.27 390.61 667.23 504.26 667.25 617.92 C 667.16 657.70 667.44 697.49 667.10 737.27 C 567.09 737.61 467.06 737.30 367.04 737.42 C 324.24 737.38 281.44 737.46 238.65 737.38 C 238.66 617.16 238.62 496.94 238.66 376.72 C 233.32 383.90 227.71 390.88 222.60 398.23 C 222.17 393.16 222.41 388.07 222.38 383.00 C 222.35 347.68 222.41 312.37 222.37 277.05 C 222.50 269.58 217.91 262.00 210.79 259.39 C 203.10 256.14 193.58 259.12 188.78 265.87 C 174.31 284.89 159.89 303.96 145.59 323.11 C 144.03 322.14 142.50 321.12 141.14 319.88 C 116.09 298.02 90.63 276.63 65.61 254.74 C 77.17 233.56 90.42 213.32 104.82 193.97 C 133.27 156.10 167.00 121.79 206.44 95.33 C 237.09 74.71 271.35 59.24 307.45 51.17 C 317.09 70.33 328.84 88.66 344.07 103.89 C 361.29 121.76 382.98 135.56 406.95 142.28 C 421.24 146.33 436.19 147.98 451.02 147.29 C 453.92 147.21 456.91 146.85 459.75 147.67 C 490.85 160.44 528.46 156.71 555.98 137.15 C 579.74 120.53 596.03 95.19 606.52 68.54 C 608.81 63.32 609.59 57.47 612.58 52.56 M 432.59 267.76 C 406.49 270.62 381.68 283.58 364.44 303.39 C 347.88 322.19 338.40 346.99 338.09 372.03 C 337.60 395.51 345.08 419.08 359.18 437.89 C 369.19 451.27 382.35 462.30 397.36 469.68 C 418.46 480.18 443.08 483.25 466.16 478.59 C 496.04 472.74 522.87 453.27 537.72 426.70 C 549.72 405.74 554.00 380.65 550.22 356.85 C 545.64 326.82 527.38 299.28 501.57 283.29 C 481.22 270.47 456.46 265.01 432.59 267.76 Z" />
<path fill="#99cb83" opacity="1.00" d=" M 796.47 99.88 C 831.50 124.37 861.72 155.27 887.79 189.03 C 906.34 213.21 922.88 238.98 936.82 266.09 C 939.20 271.00 942.12 275.79 943.00 281.25 L 943.00 284.82 C 942.54 292.73 936.08 297.78 930.46 302.37 C 889.25 337.84 848.07 373.34 806.85 408.79 C 799.40 415.49 786.62 414.41 780.43 406.53 C 772.76 396.69 765.49 386.54 757.78 376.73 C 757.62 515.15 757.75 653.57 757.71 791.99 C 757.55 797.36 758.46 803.06 756.09 808.11 C 753.42 814.14 747.37 818.35 740.83 819.00 L 255.27 819.00 C 246.67 818.07 239.18 810.68 238.76 801.94 C 238.46 792.80 238.75 783.65 238.64 774.51 C 387.76 774.28 536.88 774.49 686.00 774.40 C 692.35 774.53 698.37 770.88 701.63 765.52 C 705.11 760.00 704.22 753.20 704.32 747.00 C 704.30 608.66 704.33 470.32 704.32 331.99 C 710.29 339.57 715.93 347.42 721.81 355.09 C 724.87 359.00 727.47 363.58 731.93 366.11 C 738.73 370.07 748.06 369.24 753.89 363.87 C 796.72 327.02 839.51 290.14 882.32 253.28 C 886.29 249.95 889.34 245.24 889.49 239.93 C 890.08 231.91 884.78 225.30 881.69 218.33 C 859.69 176.57 831.95 137.77 799.25 103.71 C 798.23 102.50 797.37 101.17 796.47 99.88 Z" />
<path fill="#99cb83" opacity="1.00" d=" M 494.23 326.32 C 496.01 325.32 498.25 325.90 499.62 327.32 C 502.21 329.77 504.81 332.24 507.15 334.94 C 508.76 336.81 507.51 339.43 505.95 340.89 C 480.42 367.40 454.88 393.91 429.35 420.42 C 427.61 422.68 423.88 423.32 421.96 420.95 C 409.60 407.67 397.32 394.31 384.91 381.08 C 383.60 379.59 381.90 378.15 381.72 376.04 C 381.65 373.56 383.75 371.95 385.26 370.31 C 387.29 368.38 389.09 366.16 391.45 364.62 C 393.68 363.42 396.12 364.74 397.59 366.49 C 404.67 374.06 411.72 381.67 418.80 389.25 C 420.82 391.37 422.63 393.74 425.03 395.48 C 426.53 395.80 427.55 394.44 428.54 393.57 C 449.10 372.12 469.79 350.78 490.35 329.33 C 491.51 328.17 492.72 327.00 494.23 326.32 Z" />
<path fill="#99cb83" opacity="1.00" d=" M 161.84 362.94 C 169.88 353.10 176.88 342.44 185.09 332.74 C 185.31 336.16 185.41 339.59 185.37 343.02 C 185.24 363.69 185.54 384.35 185.20 405.01 C 170.70 392.82 156.57 380.15 141.99 368.05 C 148.92 369.75 156.97 368.55 161.84 362.94 Z" />
</g>
<g id="#ffffffff">
<path fill="#ffffff" opacity="1.00" d=" M 432.59 267.76 C 456.46 265.01 481.22 270.47 501.57 283.29 C 527.38 299.28 545.64 326.82 550.22 356.85 C 554.00 380.65 549.72 405.74 537.72 426.70 C 522.87 453.27 496.04 472.74 466.16 478.59 C 443.08 483.25 418.46 480.18 397.36 469.68 C 382.35 462.30 369.19 451.27 359.18 437.89 C 345.08 419.08 337.60 395.51 338.09 372.03 C 338.40 346.99 347.88 322.19 364.44 303.39 C 381.68 283.58 406.49 270.62 432.59 267.76 M 494.23 326.32 C 492.72 327.00 491.51 328.17 490.35 329.33 C 469.79 350.78 449.10 372.12 428.54 393.57 C 427.55 394.44 426.53 395.80 425.03 395.48 C 422.63 393.74 420.82 391.37 418.80 389.25 C 411.72 381.67 404.67 374.06 397.59 366.49 C 396.12 364.74 393.68 363.42 391.45 364.62 C 389.09 366.16 387.29 368.38 385.26 370.31 C 383.75 371.95 381.65 373.56 381.72 376.04 C 381.90 378.15 383.60 379.59 384.91 381.08 C 397.32 394.31 409.60 407.67 421.96 420.95 C 423.88 423.32 427.61 422.68 429.35 420.42 C 454.88 393.91 480.42 367.40 505.95 340.89 C 507.51 339.43 508.76 336.81 507.15 334.94 C 504.81 332.24 502.21 329.77 499.62 327.32 C 498.25 325.90 496.01 325.32 494.23 326.32 Z" />
</g>
</svg>
