<?xml version="1.0" encoding="UTF-8" ?>
<!DOCTYPE svg PUBLIC "-//W3C//DTD SVG 1.1//EN" "http://www.w3.org/Graphics/SVG/1.1/DTD/svg11.dtd">
<svg width="84pt" height="96pt" viewBox="0 0 84 96" version="1.1" xmlns="http://www.w3.org/2000/svg">
<g id="#4f483662">
<path fill="#4f4836" opacity="0.38" d=" M 0.00 0.00 L 1.88 0.00 C 1.87 1.36 1.24 1.93 0.00 1.71 L 0.00 0.00 Z" />
<path fill="#4f4836" opacity="0.38" d=" M 0.00 94.08 C 1.22 94.14 1.84 94.78 1.86 96.00 L 0.00 96.00 L 0.00 94.08 Z" />
</g>
<g id="#cfbd8dff">
<path fill="#cfbd8d" opacity="1.00" d=" M 1.88 0.00 L 82.30 0.00 C 82.07 1.25 82.64 1.88 84.00 1.88 L 84.00 94.28 C 82.76 94.07 82.14 94.64 82.13 96.00 L 60.44 96.00 C 64.91 94.28 68.92 90.51 69.35 85.52 C 69.83 80.02 69.53 74.48 69.57 68.97 C 69.67 65.10 68.61 61.01 65.60 58.38 C 63.33 55.94 59.94 55.35 56.81 54.80 C 56.59 46.85 57.03 38.88 56.62 30.93 C 55.92 22.44 47.57 15.38 39.02 16.65 C 31.26 17.39 25.20 24.66 25.19 32.34 C 25.26 36.90 24.67 41.60 25.89 46.04 C 27.16 50.32 31.16 52.66 34.80 54.72 C 31.51 54.73 28.23 54.70 24.94 54.81 C 21.09 55.16 17.24 56.77 14.94 60.00 C 11.78 63.95 12.51 69.30 12.40 74.00 C 12.57 78.60 11.91 83.33 13.15 87.82 C 14.31 91.75 17.80 94.37 21.38 96.00 L 1.86 96.00 C 1.84 94.78 1.22 94.14 0.00 94.08 L 0.00 1.71 C 1.24 1.93 1.87 1.36 1.88 0.00 Z" />
</g>
<g id="#4d463560">
<path fill="#4d4635" opacity="0.38" d=" M 82.30 0.00 L 84.00 0.00 L 84.00 1.88 C 82.64 1.88 82.07 1.25 82.30 0.00 Z" />
</g>
<g id="#614122ff">
<path fill="#614122" opacity="1.00" d=" M 25.19 32.34 C 25.20 24.66 31.26 17.39 39.02 16.65 C 47.57 15.38 55.92 22.44 56.62 30.93 C 57.03 38.88 56.59 46.85 56.81 54.80 C 56.81 55.57 56.80 57.11 56.80 57.88 C 55.60 64.06 50.63 68.55 44.87 70.56 C 44.83 65.24 45.13 59.88 44.23 54.60 C 44.14 49.38 44.37 44.15 44.19 38.94 C 44.30 35.91 42.01 32.80 38.90 32.49 C 34.34 32.11 29.76 32.42 25.19 32.34 Z" />
</g>
<g id="#ffffffff">
<path fill="#ffffff" opacity="1.00" d=" M 25.19 32.34 C 29.76 32.42 34.34 32.11 38.90 32.49 C 42.01 32.80 44.30 35.91 44.19 38.94 C 44.37 44.15 44.14 49.38 44.23 54.60 C 43.82 59.97 44.02 65.35 44.04 70.73 C 36.20 71.94 28.40 67.32 25.57 59.95 C 25.39 58.23 25.17 56.52 24.94 54.81 C 28.23 54.70 31.51 54.73 34.80 54.72 C 31.16 52.66 27.16 50.32 25.89 46.04 C 24.67 41.60 25.26 36.90 25.19 32.34 Z" />
<path fill="#ffffff" opacity="1.00" d=" M 25.98 83.73 C 33.64 83.62 41.30 83.74 48.95 83.64 C 49.94 87.77 50.95 91.89 52.01 96.00 L 29.62 96.00 C 28.28 91.95 27.20 87.82 25.98 83.73 Z" />
</g>
<g id="#88694bff">
<path fill="#88694b" opacity="1.00" d=" M 14.94 60.00 C 17.24 56.77 21.09 55.16 24.94 54.81 C 25.17 56.52 25.39 58.23 25.57 59.95 C 24.63 67.65 25.35 75.40 25.14 83.13 C 33.07 83.68 41.02 83.03 48.95 83.64 C 41.30 83.74 33.64 83.62 25.98 83.73 C 27.20 87.82 28.28 91.95 29.62 96.00 L 21.38 96.00 C 17.80 94.37 14.31 91.75 13.15 87.82 C 11.91 83.33 12.57 78.60 12.40 74.00 C 12.51 69.30 11.78 63.95 14.94 60.00 Z" />
<path fill="#88694b" opacity="1.00" d=" M 56.81 54.80 C 59.94 55.35 63.33 55.94 65.60 58.38 C 68.61 61.01 69.67 65.10 69.57 68.97 C 69.53 74.48 69.83 80.02 69.35 85.52 C 68.92 90.51 64.91 94.28 60.44 96.00 L 52.01 96.00 C 50.95 91.89 49.94 87.77 48.95 83.64 C 51.56 83.70 54.17 83.69 56.77 83.66 C 56.99 75.07 56.78 66.47 56.80 57.88 C 56.80 57.11 56.81 55.57 56.81 54.80 Z" />
</g>
<g id="#715235ff">
<path fill="#715235" opacity="1.00" d=" M 44.23 54.60 C 45.13 59.88 44.83 65.24 44.87 70.56 C 50.63 68.55 55.60 64.06 56.80 57.88 C 56.78 66.47 56.99 75.07 56.77 83.66 C 54.17 83.69 51.56 83.70 48.95 83.64 C 41.02 83.03 33.07 83.68 25.14 83.13 C 25.35 75.40 24.63 67.65 25.57 59.95 C 28.40 67.32 36.20 71.94 44.04 70.73 C 44.02 65.35 43.82 59.97 44.23 54.60 Z" />
</g>
<g id="#4d473560">
<path fill="#4d4735" opacity="0.38" d=" M 82.13 96.00 C 82.14 94.64 82.76 94.07 84.00 94.28 L 84.00 96.00 L 82.13 96.00 Z" />
</g>
</svg>
