<?xml version="1.0" encoding="UTF-8" ?>
<!DOCTYPE svg PUBLIC "-//W3C//DTD SVG 1.1//EN" "http://www.w3.org/Graphics/SVG/1.1/DTD/svg11.dtd">
<svg width="121pt" height="91pt" viewBox="0 0 121 91" version="1.1" xmlns="http://www.w3.org/2000/svg">
<g id="#70965fff">
<path fill="#70965f" opacity="1.00" d=" M 6.36 0.00 L 107.38 0.00 C 110.73 0.73 113.29 3.38 114.03 6.71 C 113.91 29.82 114.13 52.94 113.92 76.05 C 114.08 80.71 109.68 84.43 105.14 83.99 C 72.66 84.05 40.19 83.91 7.72 84.07 C 3.97 83.94 0.97 81.14 0.00 77.62 L 0.00 6.65 C 0.69 3.38 3.20 0.93 6.36 0.00 M 3.88 13.04 C 5.18 13.04 6.48 13.05 7.78 13.05 C 41.90 13.08 76.03 13.10 110.15 13.04 C 110.13 11.00 110.17 8.96 110.28 6.93 C 109.11 5.15 107.40 3.49 105.07 3.87 C 72.67 3.90 40.27 3.79 7.88 3.92 C 3.17 4.11 3.73 9.71 3.88 13.04 M 3.88 29.10 C 3.91 44.73 3.83 60.37 3.92 76.00 C 3.73 78.39 5.97 79.77 7.96 80.34 C 37.62 80.01 67.29 80.29 96.95 80.20 C 100.57 80.08 104.29 80.63 107.84 79.76 C 110.10 78.82 110.22 76.15 110.20 74.06 C 110.12 59.07 110.22 44.08 110.15 29.10 C 76.10 29.04 42.05 29.07 8.00 29.08 C 6.63 29.09 5.26 29.09 3.88 29.10 Z" />
<path fill="#70965f" opacity="1.00" d=" M 14.37 38.63 C 23.53 38.10 32.75 38.47 41.94 38.44 C 45.67 38.29 44.38 42.91 44.28 45.25 C 34.85 46.00 25.35 45.50 15.89 45.55 C 12.47 45.79 12.64 40.40 14.37 38.63 Z" />
<path fill="#70965f" opacity="1.00" d=" M 80.19 39.02 C 82.75 38.33 85.40 38.29 88.03 38.37 C 92.78 38.51 97.58 38.04 102.30 38.82 C 102.34 40.95 102.34 43.07 102.29 45.20 C 94.98 45.77 87.49 46.10 80.22 45.02 C 80.25 43.02 80.25 41.02 80.19 39.02 Z" />
</g>
<g id="#99cb83ff">
<path fill="#99cb83" opacity="1.00" d=" M 7.78 13.05 C 7.82 10.49 8.59 6.83 11.90 7.07 C 44.69 6.86 77.49 7.14 110.28 6.93 C 110.17 8.96 110.13 11.00 110.15 13.04 C 76.03 13.10 41.90 13.08 7.78 13.05 Z" />
<path fill="#99cb83" opacity="1.00" d=" M 114.03 6.71 C 117.11 6.95 120.03 8.47 121.00 11.59 L 121.00 86.15 C 120.37 88.44 118.65 90.11 116.49 91.00 L 12.78 91.00 C 9.54 90.21 7.95 87.18 7.72 84.07 C 40.19 83.91 72.66 84.05 105.14 83.99 C 109.68 84.43 114.08 80.71 113.92 76.05 C 114.13 52.94 113.91 29.82 114.03 6.71 Z" />
<path fill="#99cb83" opacity="1.00" d=" M 8.00 29.08 C 42.05 29.07 76.10 29.04 110.15 29.10 C 110.22 44.08 110.12 59.07 110.20 74.06 C 110.22 76.15 110.10 78.82 107.84 79.76 C 104.29 80.63 100.57 80.08 96.95 80.20 C 67.29 80.29 37.62 80.01 7.96 80.34 C 8.05 63.26 7.98 46.17 8.00 29.08 M 14.37 38.63 C 12.64 40.40 12.47 45.79 15.89 45.55 C 25.35 45.50 34.85 46.00 44.28 45.25 C 44.38 42.91 45.67 38.29 41.94 38.44 C 32.75 38.47 23.53 38.10 14.37 38.63 M 80.19 39.02 C 80.25 41.02 80.25 43.02 80.22 45.02 C 87.49 46.10 94.98 45.77 102.29 45.20 C 102.34 43.07 102.34 40.95 102.30 38.82 C 97.58 38.04 92.78 38.51 88.03 38.37 C 85.40 38.29 82.75 38.33 80.19 39.02 Z" />
</g>
</svg>
