<?xml version="1.0" encoding="UTF-8" ?>
<!DOCTYPE svg PUBLIC "-//W3C//DTD SVG 1.1//EN" "http://www.w3.org/Graphics/SVG/1.1/DTD/svg11.dtd">
<svg width="791pt" height="1067pt" viewBox="0 0 791 1067" version="1.1" xmlns="http://www.w3.org/2000/svg">
<g id="#959cb5ff">
<path fill="#959cb5" opacity="1.00" d=" M 29.24 0.00 L 51.96 0.00 C 51.84 2.67 51.75 5.34 51.74 8.01 C 51.82 57.01 51.70 106.00 51.80 155.00 C 34.53 155.03 17.27 154.96 0.00 155.03 L 0.00 29.23 C 2.07 14.43 14.45 2.06 29.24 0.00 Z" />
<path fill="#959cb5" opacity="1.00" d=" M 0.00 189.76 C 17.27 189.77 34.54 189.76 51.81 189.76 C 51.70 339.85 51.80 489.93 51.76 640.02 C 51.82 719.26 51.66 798.51 51.84 877.76 C 34.56 877.89 17.27 877.48 0.00 877.96 L 0.00 189.76 Z" />
<path fill="#959cb5" opacity="1.00" d=" M 373.36 241.55 C 422.86 237.78 473.35 246.62 518.39 267.59 C 582.83 297.13 635.67 351.05 663.90 416.08 C 696.99 490.99 696.40 579.91 662.23 654.34 C 635.53 713.41 588.52 763.00 531.01 792.89 C 492.78 812.91 450.05 824.18 406.93 825.74 C 363.54 827.47 319.78 819.39 279.90 802.18 C 214.91 774.36 160.83 722.06 130.88 658.03 C 113.92 622.12 104.44 582.69 103.25 542.99 C 101.21 485.83 116.42 428.15 146.65 379.57 C 181.80 322.49 237.09 278.05 300.61 256.52 C 324.08 248.42 348.61 243.39 373.36 241.55 M 311.92 288.73 C 275.84 301.12 242.56 321.68 215.39 348.47 C 177.27 385.52 151.15 434.72 141.91 487.08 C 134.80 527.21 137.09 569.05 148.94 608.07 C 159.73 643.71 178.45 676.90 203.22 704.69 C 225.36 729.55 252.34 750.11 282.24 764.77 C 323.72 785.33 370.84 793.98 416.94 790.29 C 454.79 787.32 491.94 775.82 524.82 756.82 C 584.68 722.57 629.89 663.43 646.34 596.36 C 656.84 554.83 656.76 510.72 646.30 469.19 C 641.62 450.18 634.50 431.80 625.55 414.40 C 596.63 358.08 546.23 313.21 486.88 291.13 C 431.19 270.10 368.17 269.27 311.92 288.73 Z" />
<path fill="#959cb5" opacity="1.00" d=" M 0.00 912.25 C 17.24 912.23 34.48 912.24 51.73 912.25 C 51.83 929.10 58.39 945.80 69.80 958.20 C 80.72 970.12 95.94 978.09 112.02 979.98 C 117.65 980.68 123.34 980.44 129.00 980.46 C 317.67 980.44 506.33 980.50 695.00 980.43 C 703.46 980.28 712.03 982.28 719.25 986.78 C 729.39 992.87 736.74 1003.33 739.06 1014.93 C 741.97 1028.69 737.67 1043.78 727.72 1053.77 C 722.26 1059.66 714.93 1063.17 707.48 1065.82 C 719.63 1066.15 731.79 1065.86 743.95 1065.96 C 749.51 1066.11 755.15 1065.36 760.64 1066.66 L 759.05 1067.00 L 31.69 1067.00 C 16.04 1065.87 2.34 1053.22 0.00 1037.71 L 0.00 912.25 Z" />
</g>
<g id="#afb9d2ff">
<path fill="#afb9d2" opacity="1.00" d=" M 51.96 0.00 L 760.53 0.00 C 775.40 1.30 788.33 13.28 791.00 27.93 L 791.00 155.00 C 544.60 155.00 298.20 155.00 51.80 155.00 C 51.70 106.00 51.82 57.01 51.74 8.01 C 51.75 5.34 51.84 2.67 51.96 0.00 M 389.22 34.29 C 368.29 36.75 350.08 53.36 345.62 73.94 C 342.16 88.74 345.58 105.01 354.90 117.04 C 364.43 129.73 380.14 137.54 396.02 137.29 C 411.90 137.61 427.56 129.75 437.14 117.14 C 444.41 107.77 448.23 95.80 447.76 83.95 C 447.49 67.13 438.13 50.95 423.97 41.97 C 413.78 35.32 401.24 32.86 389.22 34.29 M 541.45 47.65 C 531.06 49.56 521.52 55.85 515.90 64.83 C 509.77 74.22 508.37 86.44 511.98 97.04 C 515.63 107.93 524.49 116.88 535.33 120.69 C 550.43 126.40 568.78 121.27 578.71 108.54 C 585.77 99.87 588.58 87.94 586.14 77.03 C 583.90 66.40 576.76 56.97 567.22 51.82 C 559.44 47.50 550.18 46.06 541.45 47.65 M 234.34 52.45 C 219.65 55.02 207.70 68.08 206.48 82.96 C 204.50 99.34 215.98 115.99 232.05 119.83 C 246.90 124.04 263.92 116.76 271.15 103.14 C 278.99 89.42 275.75 70.61 263.69 60.38 C 255.81 53.35 244.67 50.58 234.34 52.45 Z" />
<path fill="#afb9d2" opacity="1.00" d=" M 51.81 189.76 C 247.52 189.74 443.22 189.76 638.92 189.75 C 689.61 189.87 740.31 189.52 791.00 189.93 L 791.00 877.75 C 544.61 877.76 298.23 877.75 51.84 877.76 C 51.66 798.51 51.82 719.26 51.76 640.02 C 51.80 489.93 51.70 339.85 51.81 189.76 M 373.36 241.55 C 348.61 243.39 324.08 248.42 300.61 256.52 C 237.09 278.05 181.80 322.49 146.65 379.57 C 116.42 428.15 101.21 485.83 103.25 542.99 C 104.44 582.69 113.92 622.12 130.88 658.03 C 160.83 722.06 214.91 774.36 279.90 802.18 C 319.78 819.39 363.54 827.47 406.93 825.74 C 450.05 824.18 492.78 812.91 531.01 792.89 C 588.52 763.00 635.53 713.41 662.23 654.34 C 696.40 579.91 696.99 490.99 663.90 416.08 C 635.67 351.05 582.83 297.13 518.39 267.59 C 473.35 246.62 422.86 237.78 373.36 241.55 Z" />
<path fill="#afb9d2" opacity="1.00" d=" M 51.73 912.25 C 245.17 912.25 438.62 912.25 632.06 912.25 C 685.04 912.13 738.03 912.48 791.00 912.07 L 791.00 1038.52 C 788.53 1053.27 775.52 1065.27 760.64 1066.66 C 755.15 1065.36 749.51 1066.11 743.95 1065.96 C 731.79 1065.86 719.63 1066.15 707.48 1065.82 C 714.93 1063.17 722.26 1059.66 727.72 1053.77 C 737.67 1043.78 741.97 1028.69 739.06 1014.93 C 736.74 1003.33 729.39 992.87 719.25 986.78 C 712.03 982.28 703.46 980.28 695.00 980.43 C 506.33 980.50 317.67 980.44 129.00 980.46 C 123.34 980.44 117.65 980.68 112.02 979.98 C 95.94 978.09 80.72 970.12 69.80 958.20 C 58.39 945.80 51.83 929.10 51.73 912.25 Z" />
</g>
<g id="#5b5d6eff">
<path fill="#5b5d6e" opacity="1.00" d=" M 389.22 34.29 C 401.24 32.86 413.78 35.32 423.97 41.97 C 438.13 50.95 447.49 67.13 447.76 83.95 C 448.23 95.80 444.41 107.77 437.14 117.14 C 427.56 129.75 411.90 137.61 396.02 137.29 C 380.14 137.54 364.43 129.73 354.90 117.04 C 345.58 105.01 342.16 88.74 345.62 73.94 C 350.08 53.36 368.29 36.75 389.22 34.29 Z" />
</g>
<g id="#35bc68ff">
<path fill="#35bc68" opacity="1.00" d=" M 541.45 47.65 C 550.18 46.06 559.44 47.50 567.22 51.82 C 576.76 56.97 583.90 66.40 586.14 77.03 C 588.58 87.94 585.77 99.87 578.71 108.54 C 568.78 121.27 550.43 126.40 535.33 120.69 C 524.49 116.88 515.63 107.93 511.98 97.04 C 508.37 86.44 509.77 74.22 515.90 64.83 C 521.52 55.85 531.06 49.56 541.45 47.65 Z" />
</g>
<g id="#7f8499ff">
<path fill="#7f8499" opacity="1.00" d=" M 234.34 52.45 C 244.67 50.58 255.81 53.35 263.69 60.38 C 275.75 70.61 278.99 89.42 271.15 103.14 C 263.92 116.76 246.90 124.04 232.05 119.83 C 215.98 115.99 204.50 99.34 206.48 82.96 C 207.70 68.08 219.65 55.02 234.34 52.45 Z" />
<path fill="#7f8499" opacity="1.00" d=" M 0.00 155.03 C 17.27 154.96 34.53 155.03 51.80 155.00 C 298.20 155.00 544.60 155.00 791.00 155.00 L 791.00 189.93 C 740.31 189.52 689.61 189.87 638.92 189.75 C 443.22 189.76 247.52 189.74 51.81 189.76 C 34.54 189.76 17.27 189.77 0.00 189.76 L 0.00 155.03 Z" />
<path fill="#7f8499" opacity="1.00" d=" M 0.00 877.96 C 17.27 877.48 34.56 877.89 51.84 877.76 C 298.23 877.75 544.61 877.76 791.00 877.75 L 791.00 912.07 C 738.03 912.48 685.04 912.13 632.06 912.25 C 438.62 912.25 245.17 912.25 51.73 912.25 C 34.48 912.24 17.24 912.23 0.00 912.25 L 0.00 877.96 Z" />
</g>
<g id="#c7cfe2ff">
<path fill="#c7cfe2" opacity="1.00" d=" M 311.92 288.73 C 368.17 269.27 431.19 270.10 486.88 291.13 C 546.23 313.21 596.63 358.08 625.55 414.40 C 634.50 431.80 641.62 450.18 646.30 469.19 C 634.31 471.80 622.15 473.54 610.17 476.18 C 600.78 478.18 592.55 484.52 587.96 492.91 C 584.30 499.27 583.23 506.75 583.24 513.99 C 583.23 525.98 583.31 537.98 583.21 549.98 C 583.15 556.88 583.81 563.96 586.67 570.33 C 589.42 576.46 594.18 581.58 599.78 585.25 C 606.40 589.53 614.42 590.33 621.97 591.87 C 630.11 593.27 638.18 595.05 646.34 596.36 C 629.89 663.43 584.68 722.57 524.82 756.82 C 491.94 775.82 454.79 787.32 416.94 790.29 C 370.84 793.98 323.72 785.33 282.24 764.77 C 252.34 750.11 225.36 729.55 203.22 704.69 C 178.45 676.90 159.73 643.71 148.94 608.07 C 137.09 569.05 134.80 527.21 141.91 487.08 C 151.15 434.72 177.27 385.52 215.39 348.47 C 242.56 321.68 275.84 301.12 311.92 288.73 M 349.72 384.72 C 339.26 387.93 329.33 392.60 319.65 397.65 C 318.46 398.22 317.60 399.25 316.75 400.23 L 318.29 400.19 C 293.10 415.00 272.06 436.90 258.79 462.99 C 240.12 498.94 236.99 542.40 249.84 580.78 C 248.41 581.56 249.53 583.25 249.64 584.43 C 263.88 625.52 296.39 659.90 336.75 676.18 C 376.21 692.75 422.58 691.63 461.27 673.39 C 489.20 660.58 512.74 638.83 528.77 612.72 C 538.62 596.17 545.54 577.84 548.68 558.83 C 555.96 517.31 545.26 472.96 519.62 439.49 C 497.12 409.30 463.09 388.03 426.17 380.75 C 412.30 377.86 398.09 377.59 383.98 378.19 C 372.35 379.00 360.92 381.55 349.72 384.72 Z" />
</g>
<g id="#d5dcedff">
<path fill="#d5dced" opacity="1.00" d=" M 349.72 384.72 C 360.92 381.55 372.35 379.00 383.98 378.19 C 398.09 377.59 412.30 377.86 426.17 380.75 C 463.09 388.03 497.12 409.30 519.62 439.49 C 545.26 472.96 555.96 517.31 548.68 558.83 C 545.54 577.84 538.62 596.17 528.77 612.72 C 512.74 638.83 489.20 660.58 461.27 673.39 C 422.58 691.63 376.21 692.75 336.75 676.18 C 296.39 659.90 263.88 625.52 249.64 584.43 C 249.53 583.25 248.41 581.56 249.84 580.78 C 260.08 611.74 280.67 639.09 307.41 657.71 C 326.89 671.37 349.59 680.41 373.16 683.72 C 408.85 688.96 446.35 681.21 476.82 661.83 C 503.26 645.26 524.46 620.45 536.52 591.66 C 551.47 556.48 552.35 515.61 539.09 479.77 C 531.51 459.20 519.42 440.31 503.97 424.76 C 480.01 400.62 447.84 384.76 414.05 380.75 C 381.13 376.58 347.00 383.58 318.29 400.19 L 316.75 400.23 C 317.60 399.25 318.46 398.22 319.65 397.65 C 329.33 392.60 339.26 387.93 349.72 384.72 Z" />
<path fill="#d5dced" opacity="1.00" d=" M 610.17 476.18 C 622.15 473.54 634.31 471.80 646.30 469.19 C 656.76 510.72 656.84 554.83 646.34 596.36 C 638.18 595.05 630.11 593.27 621.97 591.87 C 614.42 590.33 606.40 589.53 599.78 585.25 C 594.18 581.58 589.42 576.46 586.67 570.33 C 583.81 563.96 583.15 556.88 583.21 549.98 C 583.31 537.98 583.23 525.98 583.24 513.99 C 583.23 506.75 584.30 499.27 587.96 492.91 C 592.55 484.52 600.78 478.18 610.17 476.18 Z" />
</g>
<g id="#54d0f4ff">
<path fill="#54d0f4" opacity="1.00" d=" M 318.29 400.19 C 347.00 383.58 381.13 376.58 414.05 380.75 C 447.84 384.76 480.01 400.62 503.97 424.76 C 467.50 419.52 429.16 428.02 398.51 448.51 C 371.38 466.15 350.20 492.77 339.07 523.13 C 325.03 560.73 326.66 603.98 343.70 640.33 C 349.99 653.91 358.25 666.63 368.36 677.67 C 370.08 679.58 371.65 681.62 373.16 683.72 C 349.59 680.41 326.89 671.37 307.41 657.71 C 280.67 639.09 260.08 611.74 249.84 580.78 C 236.99 542.40 240.12 498.94 258.79 462.99 C 272.06 436.90 293.10 415.00 318.29 400.19 Z" />
</g>
<g id="#48c3e6ff">
<path fill="#48c3e6" opacity="1.00" d=" M 398.51 448.51 C 429.16 428.02 467.50 419.52 503.97 424.76 C 519.42 440.31 531.51 459.20 539.09 479.77 C 552.35 515.61 551.47 556.48 536.52 591.66 C 524.46 620.45 503.26 645.26 476.82 661.83 C 446.35 681.21 408.85 688.96 373.16 683.72 C 371.65 681.62 370.08 679.58 368.36 677.67 C 358.25 666.63 349.99 653.91 343.70 640.33 C 326.66 603.98 325.03 560.73 339.07 523.13 C 350.20 492.77 371.38 466.15 398.51 448.51 Z" />
</g>
</svg>
