<svg xmlns="http://www.w3.org/2000/svg" viewBox="0 0 511.1 512">
<path fill="white" d="M202.9,0h105.2c21.4,0.5,42.8,0.7,64.1,2.3c29.2,2.3,58.8,10.3,82.4,28.1c15.6,11.8,28.9,26.8,37.9,44.3
	c10.7,20.8,15.9,44,17.5,67.3c0.5,6.5,0.6,13,1,19.5v185.6c-0.9,22.4-2.1,45.1-9.1,66.6c-8,26.4-24.3,50.3-46.3,66.9
	c-15.4,11.9-33.6,19.9-52.5,24.4c-23.2,5.7-47.3,5.8-71.1,6.5c-7.9,0.3-15.8,0-23.7,0.5H196.6c-17.8-0.7-35.7-0.7-53.4-1.9
	c-24.9-1.6-49.9-7.3-71.8-19.4c-26.7-15.1-48.1-39.6-58.5-68.5c-7.1-18.5-10.2-38.4-11.2-58.1c-2.1-39.3-1.5-78.7-1.6-118
	c0.1-32.7-0.1-65.4,1.7-98.1c1-22.1,5-44.2,13.8-64.5c8-19.1,21.1-35.8,37-49.1C75.4,15.1,105,5.7,134.4,2.7
	C157.1,0.6,180.1,0.6,202.9,0 M155.6,47.9c-17.6,0.7-35.5,2.8-51.9,9.6C89.4,63,77.2,73,67.8,85c-7.7,10-12.4,22-15.5,34.2
	c-4.3,17.2-4.5,35.1-5.2,52.8c-1,37-0.6,74-0.7,111c0,27.4,0.2,54.8,1.8,82.1c1.1,17.1,4.3,34.4,11.9,49.9
	c6.1,12.2,15.4,22.7,26.4,30.8c17,12.1,38.2,16.7,58.7,18.3c28.6,1.8,57.3,1.9,85.9,1.9c44.7-0.1,89.4,0.7,134.1-1.8
	c20.5-1.3,41.5-5.6,58.8-17.3c15.3-10.2,27-25.6,32.9-43c7.7-21.4,7.6-44.4,8.5-66.9c0.8-29,0.6-58,0.6-87
	c-0.1-32,0.1-64.1-1.5-96.1c-0.8-19.9-3.8-40.3-13.2-58.2c-6.1-11.6-15.2-21.5-25.7-29.2c-17.3-12.1-38.7-16.7-59.5-18.1
	c-38.6-2.3-77.4-1.8-116.1-1.9C218.6,46.6,187.1,46.4,155.6,47.9z"/>
<path fill="white" d="M386.3,89.3c14.9-3.6,31.3,6,35.7,20.6c4.9,14.1-2.4,30.9-15.9,37.1c-12.4,6.2-28.8,2.5-37.3-8.5c-9.1-11-8.8-28.4,0.6-39.1
	C373.7,94.3,379.8,90.7,386.3,89.3z"/>
<path fill="white" d="M243.2,125.2c24.2-2.4,49,2,70.8,12.8c27.9,13.6,50.6,37.6,62.9,66.2c11.7,27.1,13.8,58.2,6,86.7
	c-7.7,28.5-25.5,54.1-49.4,71.5c-21.2,15.6-47.2,24.5-73.5,25.2c-27.9,0.9-56.1-7.4-79-23.4c-24.2-16.7-42.5-41.8-51-70
	c-8.5-28.1-7.3-59,3.6-86.3c10.6-26.9,30.4-50.1,55.4-64.8C205.5,133.1,224.1,127,243.2,125.2 M247.2,171.2
	c-28.2,2.7-54.2,20.6-67,45.8c-9.4,18-11.8,39.3-7.1,59c4.5,18.9,15.7,36,31.1,47.8c14.5,11.1,32.6,17.4,50.9,17.5
	c17.2,0.2,34.4-4.9,48.7-14.6c15-10.1,26.6-25.1,32.7-42.2c6.8-19,6.5-40.4-0.8-59.2c-6.7-17.6-19.5-32.7-35.6-42.4
	C284.3,173.4,265.5,169.3,247.2,171.2z"/>
</svg>