<?xml version="1.0" encoding="utf-8"?>
<!-- Generator: Adobe Illustrator 21.1.0, SVG Export Plug-In . SVG Version: 6.00 Build 0)  -->
<svg version="1.1" id="Слой_1" xmlns="http://www.w3.org/2000/svg" xmlns:xlink="http://www.w3.org/1999/xlink" x="0px" y="0px"
	 viewBox="0 0 90 30" style="enable-background:new 0 0 90 30;" xml:space="preserve">
<style type="text/css">
	.st0{display:none;fill:#2F4360;stroke:#415F2F;stroke-width:1.7404;stroke-linejoin:round;stroke-miterlimit:10;}
	.st1{font-family:'KarminaBold';}
	.st2{font-size:26.0963px;}
	.st3{letter-spacing:2;}
	.st4{fill:#E74928;}
	.st5{fill:none;stroke:#354A54;stroke-width:2.3244;stroke-miterlimit:10;}
	.st6{fill:none;stroke:#354A54;stroke-width:2.3244;stroke-linecap:round;stroke-miterlimit:10;}
	.st7{fill:#354A54;}
</style>
<g id="logo">
	<text transform="matrix(0.9949 0 -0.1007 0.9949 35.8964 25.4051)" class="st0 st1 st2 st3">SHIRTS</text>
	<g>
		<path class="st4" d="M11.9,11.2c-0.9,0.2-0.5,0.1-1.2,0.3c-1,0.2-1.4,0.5-1.5,1.6c-0.4,4.5-0.6,6.4-1,10.8
			C8.1,25,9,25.9,10.2,25.9c1.9,0,2.6-0.9,2.7-2.1l1-10.1c0-0.6,0.1-1.3,0.2-1.7c0-0.5-0.1-0.6-0.2-0.8C13.5,10.8,12.7,11,11.9,11.2
			z"/>
		<path class="st4" d="M23.8,4.8c-1.1,0-3.2,0-5.7,0.1c0,0-4.6,0.4-7.7,1c-1.7,0.3-3,0.7-3.6,0.9C5.5,7.1,4.3,8.1,4.6,9.6
			c0.2,0.9,0.7,2,2.2,1.7c2-0.5,4.1-1.3,7.4-1.7c0.5,0,0.8,0,1.1,0.3c0.2,0.2,0.3,0.4,0.2,1L14.3,23c-0.1,1.2,0.8,2.1,1.9,2.1
			c1.9,0,2.6-1,2.7-2.1l1.2-12.8l0,0c0.1-0.6,0.2-0.7,0.4-0.8c0.2-0.2,0.6-0.3,1.2-0.3c0.6,0,1.2,0,1.9,0c1.6,0,2.5-0.9,2.5-2.2
			C26.1,5.5,25.4,4.8,23.8,4.8z"/>
	</g>
	<g id="SHIRTS">
		<g>
			<g>
				<path class="st5" d="M37.3,24.1c-0.6-0.5-0.9-1.1-1.1-1.9c-0.2-0.8-0.1-1.6,0.2-2.5c0.1-0.2,0.2-0.3,0.4-0.4
					c0.2-0.1,0.3-0.1,0.4,0c0.1,0.1,0.2,0.1,0.3,0.3c0.1,0.1,0.1,0.3,0,0.5c-0.2,0.6-0.3,1.2-0.2,1.8c0.1,0.5,0.4,0.9,0.7,1.3
					c0.3,0.3,0.6,0.4,0.9,0.5c0.3,0.1,0.7,0,1.1-0.2c0.5-0.3,0.9-0.7,1.1-1.1c0.2-0.4,0.3-0.9,0.3-1.4c0-0.5-0.1-1-0.2-1.5
					c-0.2-0.5-0.4-1.1-0.6-1.6c-0.3-0.5-0.5-1-0.8-1.5c-0.3-0.5-0.5-0.9-0.8-1.3c-0.4-0.6-0.8-1.3-1-2c-0.2-0.7-0.4-1.4-0.4-2.2
					c-0.1-0.7,0-1.4,0.1-2.1c0.1-0.7,0.4-1.2,0.7-1.7C39,6.7,39.4,6.3,40,6.1c0.6-0.2,1.2-0.3,2-0.2c0.2,0.1,0.4,0.2,0.6,0.3
					C42.8,6.4,43,6.7,43.2,7c0.2,0.3,0.3,0.8,0.4,1.3c0.1,0.6,0.1,1.2,0,2.1c0,0.2-0.1,0.4-0.3,0.5C43.2,11,43,11,42.9,11
					c-0.1,0-0.3-0.1-0.4-0.2c-0.1-0.1-0.2-0.3-0.1-0.5c0.1-0.9,0.1-1.6-0.1-2.2c-0.2-0.6-0.4-0.9-0.8-1.1C41.2,7,40.9,7,40.5,7.1
					c-0.3,0.1-0.6,0.4-0.9,0.7c-0.2,0.3-0.3,0.7-0.5,1.2c-0.1,0.5-0.2,1-0.2,1.6c0,0.6,0.1,1.2,0.3,1.9c0.2,0.7,0.5,1.3,1,1.9
					c0.3,0.4,0.6,0.9,1,1.4c0.3,0.5,0.6,1.1,0.9,1.7c0.3,0.6,0.5,1.2,0.6,1.9c0.2,0.6,0.2,1.3,0.1,1.9c-0.1,0.6-0.3,1.2-0.6,1.8
					c-0.4,0.5-0.9,1-1.6,1.4c-0.6,0.2-1.2,0.3-1.8,0.2C38.3,24.7,37.8,24.4,37.3,24.1z"/>
				<path class="st5" d="M46.2,24c0.2-2.5,0.5-4.7,0.7-6.8c0.2-2,0.3-3.8,0.5-5.3c0.1-1.5,0.2-2.7,0.3-3.6c0.1-0.9,0.1-1.4,0.1-1.6
					c0-0.5,0.2-0.8,0.7-0.8c0.1,0,0.2,0,0.3,0.1c0.1,0,0.2,0.2,0.2,0.4c0,0.2,0,0.5,0,0.9c0,0.4,0,0.9-0.1,1.6
					c0,0.7-0.1,1.6-0.2,2.6c-0.1,1.1-0.2,2.3-0.3,3.7h3.2l0.9-8.7c0-0.2,0.1-0.3,0.2-0.4C52.7,6,52.8,6,53,6c0.1,0,0.3,0,0.4,0.1
					c0.1,0.1,0.2,0.2,0.2,0.4L51.8,24c0,0.2-0.1,0.4-0.2,0.5c-0.1,0.1-0.3,0.1-0.4,0.1c-0.2,0-0.3-0.1-0.4-0.2
					c-0.1-0.1-0.2-0.3-0.1-0.4l0.8-7.6h-3.2L47.4,24c0,0.2-0.1,0.4-0.2,0.5c-0.1,0.1-0.3,0.1-0.4,0.1c-0.1,0-0.3-0.1-0.4-0.2
					C46.2,24.4,46.1,24.2,46.2,24z"/>
				<path class="st5" d="M60,7.2c-0.2,2.1-0.4,4.1-0.6,6c-0.2,1.9-0.3,3.6-0.4,5c-0.1,1.4-0.2,2.6-0.3,3.6c-0.1,0.9-0.1,1.5-0.1,1.7
					h1.3c0.2,0,0.3,0.1,0.4,0.2c0.1,0.1,0.1,0.3,0.1,0.4c0,0.2-0.1,0.3-0.2,0.4c-0.1,0.1-0.3,0.2-0.5,0.2h-4c-0.2,0-0.4-0.1-0.5-0.2
					c-0.1-0.1-0.1-0.3-0.1-0.4c0-0.2,0.1-0.3,0.2-0.4c0.1-0.1,0.3-0.2,0.5-0.2h1.5c0-0.2,0-0.6,0-1.3c0-0.7,0.1-1.7,0.2-3
					c0.1-1.3,0.3-2.9,0.4-4.9c0.2-2,0.4-4.3,0.7-7h-1.7c-0.2,0-0.3-0.1-0.4-0.2c-0.1-0.1-0.1-0.3-0.1-0.4c0-0.1,0.1-0.3,0.2-0.4
					C56.9,6,57,5.9,57.2,5.9h4.4c0.2,0,0.3,0.1,0.4,0.2c0.1,0.1,0.1,0.3,0.1,0.4c0,0.1-0.1,0.3-0.2,0.4c-0.1,0.1-0.3,0.2-0.5,0.2H60
					z"/>
				<path class="st5" d="M68.6,16.9c0,0.1-0.2,0.1-0.1,0.6c0.1,0.5,0.2,1,0.3,1.6c0.1,0.6,0.2,1.2,0.4,1.7c0.2,0.5,0.3,1.1,0.5,1.5
					c0.2,0.5,0.4,0.8,0.7,1.1c0.1,0.2,0.2,0.3,0.2,0.5c0,0.2-0.1,0.3-0.2,0.4c-0.1,0.1-0.3,0.2-0.5,0.2c-0.2,0-0.3-0.1-0.5-0.2
					c-0.5-0.5-0.8-1.1-1.1-1.9c-0.3-0.8-0.9-2.3-1-3c-0.1-0.8-0.1-1.2-0.2-1.4c-0.4,0.2-1.1,0.4-1.6,0.4c-0.2,2-0.2,1.8-0.3,3.1
					c-0.1,1.3-0.1,2-0.1,2.3c0,0.5-0.3,0.8-0.7,0.8c-0.1,0-0.2,0-0.3-0.1c-0.1-0.1-0.1-0.3-0.2-0.7c0-0.4,0-0.9,0-1.6
					c0-0.7,0.1-1.7,0.2-3.1c0.1-1.3,0.3-3,0.5-5c0.2-2,0.4-4.5,0.8-7.5c0-0.2,0.1-0.3,0.2-0.4c0,0,0.2-0.1,0.4-0.1
					c0.3,0,4.8,1.5,5.2,5.4C71.6,14.5,68.9,16.7,68.6,16.9z M65.5,17c3-0.4,5.1-3.1,4.8-5.6c-0.2-1.9-1.8-3.6-3.9-4.2
					C66.2,8.6,65.6,15.9,65.5,17z"/>
				<path class="st5" d="M73.9,7.2c-0.2,0-0.3-0.1-0.4-0.2c-0.1-0.1-0.1-0.3-0.1-0.4c0-0.1,0.1-0.3,0.2-0.4C73.7,6,73.8,5.9,74,5.9
					h5.4c0.2,0,0.3,0.1,0.4,0.2C80,6.3,80,6.4,80,6.6c0,0.1-0.1,0.3-0.2,0.4c-0.1,0.1-0.3,0.2-0.5,0.2h-2L75.7,24
					c0,0.2-0.1,0.4-0.2,0.5c-0.1,0.1-0.3,0.1-0.4,0.1c-0.1,0-0.3,0-0.4-0.1c-0.1-0.1-0.2-0.3-0.2-0.5l1.7-16.9H73.9z"/>
				<path class="st5" d="M82.2,24.1c-0.6-0.5-0.9-1.1-1.1-1.9c-0.2-0.8-0.1-1.6,0.2-2.5c0.1-0.2,0.2-0.3,0.4-0.4
					c0.2-0.1,0.3-0.1,0.4,0c0.1,0.1,0.2,0.1,0.3,0.3c0.1,0.1,0.1,0.3,0,0.5c-0.2,0.6-0.3,1.2-0.2,1.8c0.1,0.5,0.4,0.9,0.7,1.3
					c0.3,0.3,0.6,0.4,0.9,0.5c0.3,0.1,0.7,0,1.1-0.2c0.5-0.3,0.9-0.7,1.1-1.1c0.2-0.4,0.3-0.9,0.3-1.4c0-0.5-0.1-1-0.2-1.5
					c-0.2-0.5-0.4-1.1-0.6-1.6c-0.3-0.5-0.5-1-0.8-1.5c-0.3-0.5-0.5-0.9-0.8-1.3c-0.4-0.6-0.8-1.3-1-2c-0.2-0.7-0.4-1.4-0.4-2.2
					c-0.1-0.7,0-1.4,0.1-2.1c0.1-0.7,0.4-1.2,0.7-1.7c0.3-0.5,0.8-0.9,1.4-1.1c0.6-0.2,1.2-0.3,2-0.2C87,6,87.2,6.1,87.4,6.2
					c0.2,0.2,0.5,0.4,0.6,0.8c0.2,0.3,0.3,0.8,0.4,1.3c0.1,0.6,0.1,1.2,0,2.1c0,0.2-0.1,0.4-0.3,0.5C88,11,87.9,11,87.7,11
					c-0.1,0-0.3-0.1-0.4-0.2c-0.1-0.1-0.2-0.3-0.1-0.5c0.1-0.9,0.1-1.6-0.1-2.2c-0.2-0.6-0.4-0.9-0.8-1.1C86.1,7,85.7,7,85.4,7.1
					c-0.3,0.1-0.6,0.4-0.9,0.7C84.3,8.1,84.2,8.5,84,9c-0.1,0.5-0.2,1-0.2,1.6c0,0.6,0.1,1.2,0.3,1.9c0.2,0.7,0.5,1.3,1,1.9
					c0.3,0.4,0.6,0.9,1,1.4c0.3,0.5,0.6,1.1,0.9,1.7c0.3,0.6,0.5,1.2,0.6,1.9c0.2,0.6,0.2,1.3,0.1,1.9c-0.1,0.6-0.3,1.2-0.6,1.8
					c-0.4,0.5-0.9,1-1.6,1.4c-0.6,0.2-1.2,0.3-1.8,0.2C83.1,24.7,82.6,24.4,82.2,24.1z"/>
			</g>
		</g>
		<path class="st6" d="M11.8,2.3C9.2,2.7,6.4,3.5,5.2,3.8C2.3,4.6,1.3,6.9,1.3,8.7c0,5.6,3.4,5.5,4,5.5c0.8,0,0.6,0.6,0.5,1.4
			c-0.3,2.8-0.5,6.7-0.8,9.3c-0.2,2.3,1.2,3.8,3.6,3.6c5-0.4,8.9-0.5,9.5-0.6c0.6-0.1,3.6-0.1,4-4.2c0.3-3,1-9.2,1.2-10.5
			c0.1-1.3,1.5-0.7,2.5-0.9c2.3-0.4,3.6-3.5,3.8-5.8c0.2-3.7-3.4-5.5-6.6-5.2c-0.7,0.1-2.9,0.3-5.2,0.5"/>
		<g id="hyphen">
			<path class="st7" d="M31.1,13.4c-0.2,0-0.3,0-0.5,0.1c-0.8,0.4-1.5,2.2-1.2,3.2c0.2,0.5,0.6,0.7,1.1,0.7c0.6,0,1.2-0.2,1.8-0.5
				c1.1-0.6,1.2-1.2,0.6-2.1C32.5,14.1,31.8,13.4,31.1,13.4L31.1,13.4z"/>
		</g>
	</g>
</g>
</svg>
