<svg xmlns="http://www.w3.org/2000/svg" width="24" height="24" viewBox="0 0 24 24">
  <metadata><?xpacket begin="﻿" id="W5M0MpCehiHzreSzNTczkc9d"?>
<x:xmpmeta xmlns:x="adobe:ns:meta/" x:xmptk="Adobe XMP Core 5.6-c138 79.159824, 2016/09/14-01:09:01        ">
   <rdf:RDF xmlns:rdf="http://www.w3.org/1999/02/22-rdf-syntax-ns#">
      <rdf:Description rdf:about=""/>
   </rdf:RDF>
</x:xmpmeta>
                                                                                                    
                                                                                                    
                                                                                                    
                                                                                                    
                                                                                                    
                                                                                                    
                                                                                                    
                                                                                                    
                                                                                                    
                                                                                                    
                                                                                                    
                                                                                                    
                                                                                                    
                                                                                                    
                                                                                                    
                                                                                                    
                                                                                                    
                                                                                                    
                                                                                                    
                                                                                                    
                           
<?xpacket end="w"?></metadata>
<defs>
    <style>
      .cls-1 {
        fill: #8e8e8e;
        fill-rule: evenodd;
      }
    </style>
  </defs>
  <path id="phone" class="cls-1" d="M53.458,1488.99l-3.705-3.72a1.931,1.931,0,0,0-2.724.06l-1.867,1.87c-0.118-.07-0.24-0.14-0.368-0.21a18.5,18.5,0,0,1-4.49-3.25,18.838,18.838,0,0,1-3.254-4.51c-0.069-.13-0.136-0.25-0.2-0.37l1.253-1.25,0.616-.62a1.937,1.937,0,0,0,.05-2.73l-3.705-3.72a1.94,1.94,0,0,0-2.724.05l-1.044,1.06,0.029,0.03a5.859,5.859,0,0,0-.861,1.52,6.373,6.373,0,0,0-.383,1.54c-0.489,4.07,1.364,7.79,6.394,12.83,6.953,6.97,12.557,6.45,12.8,6.42a6.1,6.1,0,0,0,1.544-.39,5.842,5.842,0,0,0,1.512-.86l0.023,0.02,1.058-1.04A1.939,1.939,0,0,0,53.458,1488.99Z" transform="translate(-30 -1470)"/>
</svg>
