<svg xmlns="http://www.w3.org/2000/svg" width="13" height="14" viewBox="0 0 13 14"><metadata><?xpacket begin="﻿" id="W5M0MpCehiHzreSzNTczkc9d"?><x:xmpmeta xmlns:x="adobe:ns:meta/" x:xmptk="Adobe XMP Core 5.6-c138 79.159824, 2016/09/14-01:09:01"><rdf:RDF xmlns:rdf="http://www.w3.org/1999/02/22-rdf-syntax-ns#"><rdf:Description rdf:about=""/></rdf:RDF></x:xmpmeta>
<?xpacket end="w"?></metadata>
<defs>
    <style>
      .cls-1 {
        fill: #e64927;
        fill-rule: evenodd;
      }
    </style>
  </defs>
  <path id="tshirt_sizes" class="cls-1" d="M864,591h13v5H864v-5Zm1,1h11v3H865v-3Zm1,0h1v1h-1v-1Zm2,0h1v2h-1v-2Zm2,0h1v1h-1v-1Zm2,0h1v2h-1v-2Zm2,0h1v1h-1v-1Zm2.99-8.3a0.344,0.344,0,0,1-.057.259l-1.555,2.356a0.3,0.3,0,0,1-.283.144,0.307,0.307,0,0,1-.141-0.029L874,586v4c0,0.192-.394,0-0.6,0h-6.079a0.252,0.252,0,0,1-.283-0.288v-3.574l-1.131.287a0.221,0.221,0,0,1-.311-0.115l-1.556-2.356a0.327,0.327,0,0,1-.028-0.23,0.26,0.26,0,0,1,.17-0.2L867.319,582h1.47a0.252,0.252,0,0,1,.283.287,0.867,0.867,0,0,0,.466.733,1.752,1.752,0,0,0,.962.3,1.816,1.816,0,0,0,.975-0.3,0.864,0.864,0,0,0,.481-0.733,0.252,0.252,0,0,1,.283-0.287h1.47l3.111,1.494a0.262,0.262,0,0,1,.17.2h0Z" transform="translate(-864 -582)"/>
</svg>
