<?xml version="1.0" encoding="UTF-8" ?>
<!DOCTYPE svg PUBLIC "-//W3C//DTD SVG 1.1//EN" "http://www.w3.org/Graphics/SVG/1.1/DTD/svg11.dtd">
<svg width="1070pt" height="929pt" viewBox="0 0 1070 929" version="1.1" xmlns="http://www.w3.org/2000/svg">
<g id="#d1d1d1ff">
<path fill="#d1d1d1" opacity="1.00" d=" M 353.16 0.00 L 359.51 0.00 C 367.62 0.84 375.00 6.61 377.38 14.47 C 381.26 27.29 386.54 39.67 392.94 51.44 C 403.94 71.91 418.96 90.49 437.80 104.24 C 445.61 109.20 453.33 115.03 462.54 117.04 C 463.52 117.92 464.68 118.58 465.94 118.98 C 486.09 126.04 508.16 127.24 529.04 123.00 C 548.46 119.02 566.59 109.54 581.40 96.42 C 603.49 76.89 619.07 50.83 629.14 23.31 C 631.31 17.87 631.98 11.59 636.10 7.13 C 639.63 2.96 644.89 0.58 650.27 0.00 L 658.69 0.00 C 699.62 0.92 740.35 9.77 777.92 26.05 C 822.50 45.19 862.49 73.98 897.09 107.80 C 900.24 111.02 904.08 113.41 907.69 116.09 C 907.00 118.17 908.82 119.58 910.00 120.99 C 938.42 150.87 963.24 184.11 984.56 219.39 C 992.77 233.11 1000.50 247.13 1007.30 261.61 C 1009.99 267.60 1010.14 274.95 1006.81 280.72 C 1004.14 285.61 999.32 288.70 995.28 292.35 C 948.40 332.79 901.37 373.07 854.54 413.57 C 846.12 420.71 832.12 419.34 825.19 410.79 C 816.39 399.61 808.26 387.90 799.23 376.91 C 798.84 468.59 799.22 560.28 799.06 651.97 C 799.09 719.65 799.06 787.32 799.09 855.00 C 799.07 858.82 799.07 862.83 797.29 866.33 C 794.62 872.14 789.13 876.41 782.99 878.00 C 779.74 878.80 776.36 878.65 773.04 878.68 C 605.66 878.60 438.27 878.75 270.88 878.58 C 257.28 878.48 243.67 878.70 230.07 878.48 C 219.49 878.08 210.26 868.62 210.29 858.00 C 210.24 726.02 210.27 594.03 210.27 462.04 C 210.30 460.86 210.11 459.70 209.44 458.72 C 210.05 456.19 210.41 453.60 210.28 451.00 C 210.00 426.57 210.61 402.13 209.97 377.71 C 206.32 381.23 203.71 385.60 200.59 389.55 C 195.35 396.33 190.40 403.32 185.06 410.02 C 182.05 413.87 177.77 416.84 172.93 417.76 C 169.44 418.32 165.89 418.22 162.37 418.33 C 159.69 416.37 156.60 415.03 154.09 412.85 C 106.07 371.52 58.07 330.17 10.04 288.87 C 4.55 284.82 0.29 278.78 0.00 271.77 L 0.00 268.67 C 0.43 265.88 1.27 263.17 2.49 260.63 C 9.91 245.08 18.33 230.03 27.31 215.35 C 46.29 184.45 67.99 155.19 92.44 128.40 C 131.52 85.59 178.25 48.86 231.79 25.93 C 270.02 9.41 311.52 0.54 353.16 0.00 M 667.11 42.26 C 650.97 83.67 623.27 121.73 584.99 145.15 C 565.01 157.34 542.18 164.67 518.89 166.74 C 509.93 167.21 500.93 167.51 491.97 166.80 C 468.03 164.90 444.49 157.45 424.02 144.86 C 390.76 124.57 365.83 92.82 349.03 58.06 C 346.69 52.84 344.38 47.60 342.32 42.26 C 299.13 44.59 256.89 58.02 219.41 79.42 C 179.46 102.12 144.66 133.06 114.66 167.68 C 88.74 197.81 65.93 230.67 47.15 265.70 C 56.33 273.37 65.32 281.27 74.43 289.05 C 101.77 312.54 129.06 336.10 156.46 359.53 C 159.34 361.77 161.75 364.61 164.94 366.45 C 181.61 344.92 197.86 323.06 214.32 301.36 C 220.42 292.74 233.31 290.10 242.27 295.74 C 248.64 299.40 252.35 306.76 252.24 314.02 C 252.28 358.34 252.30 402.66 252.23 446.98 C 252.18 448.31 252.45 449.59 253.01 450.81 C 252.39 451.74 252.37 452.89 252.37 453.98 C 252.41 581.47 252.37 708.95 252.39 836.44 C 258.55 836.42 264.72 836.45 270.88 836.42 C 400.93 836.25 530.98 836.38 661.02 836.34 C 692.99 836.22 724.97 836.62 756.92 836.12 C 757.21 665.08 756.93 494.04 757.06 323.00 C 757.09 316.72 756.35 310.07 759.29 304.26 C 762.70 297.76 769.66 293.06 777.07 292.85 C 784.61 292.38 792.16 296.44 796.18 302.80 C 809.67 320.36 822.76 338.22 836.26 355.77 C 839.04 359.36 841.52 363.20 844.79 366.38 C 851.83 360.95 858.25 354.77 865.14 349.16 C 894.43 323.78 923.99 298.71 953.27 273.32 C 956.06 270.73 959.34 268.65 961.78 265.69 C 961.42 262.56 959.15 260.04 957.77 257.28 C 939.62 225.43 918.53 195.23 894.57 167.47 C 883.29 154.13 870.72 141.98 858.25 129.77 C 846.07 118.87 833.59 108.23 820.22 98.80 C 790.34 77.17 756.73 60.62 721.15 50.81 C 703.44 46.34 685.36 43.27 667.11 42.26 Z" />
</g>
<g id="#e4e4e4ff">
<path fill="#e4e4e4" opacity="1.00" d=" M 392.94 51.44 C 400.61 50.91 408.30 50.52 415.99 50.47 C 425.48 49.60 435.14 55.70 437.91 64.90 C 443.50 83.37 452.00 100.89 462.54 117.04 C 453.33 115.03 445.61 109.20 437.80 104.24 C 418.96 90.49 403.94 71.91 392.94 51.44 Z" />
<path fill="#e4e4e4" opacity="1.00" d=" M 704.83 51.91 C 710.02 49.91 715.72 50.39 721.15 50.81 C 756.73 60.62 790.34 77.17 820.22 98.80 C 833.59 108.23 846.07 118.87 858.25 129.77 C 870.72 141.98 883.29 154.13 894.57 167.47 C 918.53 195.23 939.62 225.43 957.77 257.28 C 959.15 260.04 961.42 262.56 961.78 265.69 C 959.34 268.65 956.06 270.73 953.27 273.32 C 923.99 298.71 894.43 323.78 865.14 349.16 C 858.25 354.77 851.83 360.95 844.79 366.38 C 841.52 363.20 839.04 359.36 836.26 355.77 C 822.76 338.22 809.67 320.36 796.18 302.80 C 792.16 296.44 784.61 292.38 777.07 292.85 C 769.66 293.06 762.70 297.76 759.29 304.26 C 756.35 310.07 757.09 316.72 757.06 323.00 C 756.93 494.04 757.21 665.08 756.92 836.12 C 724.97 836.62 692.99 836.22 661.02 836.34 C 530.98 836.38 400.93 836.25 270.88 836.42 C 270.87 699.99 270.88 563.55 270.87 427.12 C 264.92 435.01 258.94 442.89 253.01 450.81 C 252.45 449.59 252.18 448.31 252.23 446.98 C 252.30 402.66 252.28 358.34 252.24 314.02 C 252.35 306.76 248.64 299.40 242.27 295.74 C 233.31 290.10 220.42 292.74 214.32 301.36 C 197.86 323.06 181.61 344.92 164.94 366.45 C 161.75 364.61 159.34 361.77 156.46 359.53 C 129.06 336.10 101.77 312.54 74.43 289.05 C 81.03 276.92 88.20 265.10 95.66 253.49 C 132.61 196.73 178.85 145.13 235.42 107.38 C 269.97 84.40 308.45 67.05 349.03 58.06 C 365.83 92.82 390.76 124.57 424.02 144.86 C 444.49 157.45 468.03 164.90 491.97 166.80 C 500.93 167.51 509.93 167.21 518.89 166.74 C 522.72 167.83 526.34 169.54 530.16 170.68 C 550.33 176.98 572.21 177.58 592.76 172.79 C 611.99 168.30 629.69 158.29 644.17 144.96 C 667.80 123.04 683.79 93.85 693.22 63.26 C 695.26 58.06 699.65 53.92 704.83 51.91 Z" />
<path fill="#e4e4e4" opacity="1.00" d=" M 910.00 120.99 C 908.82 119.58 907.00 118.17 907.69 116.09 C 956.57 151.44 997.32 197.13 1030.74 247.15 C 1044.24 267.53 1056.70 288.65 1067.30 310.69 C 1068.76 313.67 1069.76 316.90 1070.00 320.22 L 1070.00 323.10 C 1069.32 328.34 1066.89 333.37 1062.84 336.83 C 1014.31 378.65 965.72 420.40 917.20 462.23 C 910.07 469.62 897.64 470.95 889.37 464.69 C 886.21 462.49 884.08 459.21 881.78 456.19 C 874.43 446.44 867.09 436.69 859.72 426.96 C 859.71 587.31 859.73 747.67 859.71 908.02 C 859.97 918.63 851.05 928.08 840.57 929.00 L 290.38 929.00 C 280.13 928.34 271.09 919.39 270.92 909.02 C 270.80 898.88 270.91 888.73 270.88 878.58 C 438.27 878.75 605.66 878.60 773.04 878.68 C 776.36 878.65 779.74 878.80 782.99 878.00 C 789.13 876.41 794.62 872.14 797.29 866.33 C 799.07 862.83 799.07 858.82 799.09 855.00 C 799.06 787.32 799.09 719.65 799.06 651.97 C 799.22 560.28 798.84 468.59 799.23 376.91 C 808.26 387.90 816.39 399.61 825.19 410.79 C 832.12 419.34 846.12 420.71 854.54 413.57 C 901.37 373.07 948.40 332.79 995.28 292.35 C 999.32 288.70 1004.14 285.61 1006.81 280.72 C 1010.14 274.95 1009.99 267.60 1007.30 261.61 C 1000.50 247.13 992.77 233.11 984.56 219.39 C 963.24 184.11 938.42 150.87 910.00 120.99 Z" />
<path fill="#e4e4e4" opacity="1.00" d=" M 200.59 389.55 C 203.71 385.60 206.32 381.23 209.97 377.71 C 210.61 402.13 210.00 426.57 210.28 451.00 C 210.41 453.60 210.05 456.19 209.44 458.72 C 193.64 445.39 178.09 431.76 162.37 418.33 C 165.89 418.22 169.44 418.32 172.93 417.76 C 177.77 416.84 182.05 413.87 185.06 410.02 C 190.40 403.32 195.35 396.33 200.59 389.55 Z" />
</g>
</svg>
