<svg xmlns="http://www.w3.org/2000/svg" width="28" height="21" viewBox="0 0 28 21">
  <metadata><?xpacket begin="﻿" id="W5M0MpCehiHzreSzNTczkc9d"?>
<x:xmpmeta xmlns:x="adobe:ns:meta/" x:xmptk="Adobe XMP Core 5.6-c138 79.159824, 2016/09/14-01:09:01        ">
   <rdf:RDF xmlns:rdf="http://www.w3.org/1999/02/22-rdf-syntax-ns#">
      <rdf:Description rdf:about=""/>
   </rdf:RDF>
</x:xmpmeta>
                                                                                                    
                                                                                                    
                                                                                                    
                                                                                                    
                                                                                                    
                                                                                                    
                                                                                                    
                                                                                                    
                                                                                                    
                                                                                                    
                                                                                                    
                                                                                                    
                                                                                                    
                                                                                                    
                                                                                                    
                                                                                                    
                                                                                                    
                                                                                                    
                                                                                                    
                                                                                                    
                           
<?xpacket end="w"?></metadata>
<defs>
    <style>
      .cls-1 {
        fill: #5d5d5d;
        fill-rule: evenodd;
      }
    </style>
  </defs>
  <path class="cls-1" d="M176.955,227.263C176.84,227.008,176.237,208,166.5,208a0.492,0.492,0,0,0-.48.37c-0.03.1-.755,2.629-3.02,2.629s-2.99-2.524-3.02-2.629a0.5,0.5,0,0,0-.48-0.37c-10.064,0-10.34,19.008-10.456,19.263a0.5,0.5,0,0,0,.131.585l3.5,0.029a0.5,0.5,0,0,0,.7-0.05,0.238,0.238,0,0,0,.02-0.025L156,217v11.5a0.5,0.5,0,0,0,.5.5h13a0.5,0.5,0,0,0,.5-0.5V217l2.6,10.8a0.5,0.5,0,0,0,.7.1,0.109,0.109,0,0,0,.025-0.02l3.5-.029A0.5,0.5,0,0,0,176.955,227.263Z" transform="translate(-149 -208)"/>
</svg>
