<svg xmlns="http://www.w3.org/2000/svg" width="24" height="21" viewBox="0 0 24 21">
  <metadata><?xpacket begin="﻿" id="W5M0MpCehiHzreSzNTczkc9d"?>
<x:xmpmeta xmlns:x="adobe:ns:meta/" x:xmptk="Adobe XMP Core 5.6-c138 79.159824, 2016/09/14-01:09:01        ">
   <rdf:RDF xmlns:rdf="http://www.w3.org/1999/02/22-rdf-syntax-ns#">
      <rdf:Description rdf:about=""/>
   </rdf:RDF>
</x:xmpmeta>
                                                                                                    
                                                                                                    
                                                                                                    
                                                                                                    
                                                                                                    
                                                                                                    
                                                                                                    
                                                                                                    
                                                                                                    
                                                                                                    
                                                                                                    
                                                                                                    
                                                                                                    
                                                                                                    
                                                                                                    
                                                                                                    
                                                                                                    
                                                                                                    
                                                                                                    
                                                                                                    
                           
<?xpacket end="w"?></metadata>
<defs>
    <style>
      .cls-1 {
        fill: #5d5d5d;
        fill-rule: evenodd;
      }
    </style>
  </defs>
  <path class="cls-1" d="M84.955,214.263C84.84,214.008,82.065,208,76.5,208a0.492,0.492,0,0,0-.48.37c-0.03.1-.755,2.629-3.02,2.629s-2.99-2.524-3.02-2.629A0.5,0.5,0,0,0,69.5,208c-5.565,0-8.34,6.008-8.455,6.263a0.5,0.5,0,0,0,.13.585l3.5,3.03a0.5,0.5,0,0,0,.7-0.051c0.01-.01.015-0.02,0.02-0.025L66,217v11.5a0.5,0.5,0,0,0,.5.5h13a0.5,0.5,0,0,0,.5-0.5V217l0.6,0.8a0.5,0.5,0,0,0,.7.1,0.109,0.109,0,0,0,.025-0.02l3.5-3.029A0.5,0.5,0,0,0,84.955,214.263Z" transform="translate(-61 -208)"/>
</svg>
